<svg width="70" height="70" viewBox="0 0 70 70" fill="none" xmlns="http://www.w3.org/2000/svg">
<g id="ac installation">
<g id="Group">
<g id="Group_2">
<path id="Vector" d="M60 10H10C7.24 10.0031 5.00325 12.1538 5 14.8077V34.0385C5.00325 36.6923 7.24 38.843 10 38.8462H60C62.76 38.843 64.9967 36.6923 65 34.0385V14.8077C64.9967 12.1538 62.76 10.0031 60 10ZM12 11.9231H58V14.8077C58 16.4008 56.6569 17.6923 55 17.6923H15C13.3431 17.6923 12 16.4008 12 14.8077V11.9231ZM58 36.9231H12V35.9615H58V36.9231ZM58 34.0385H12V33.0769H58V34.0385ZM58 31.1538H12V30.1923H58V31.1538ZM63 34.0385C63 35.6316 61.6569 36.9231 60 36.9231V29.2308C60 28.6998 59.5522 28.2692 59 28.2692H11C10.4478 28.2692 10 28.6998 10 29.2308V36.9231C8.34312 36.9231 7 35.6316 7 34.0385V14.8077C7 13.2145 8.34312 11.9231 10 11.9231V14.8077C10.0033 17.4615 12.24 19.6123 15 19.6154H55C57.76 19.6123 59.9967 17.4615 60 14.8077V11.9231C61.6569 11.9231 63 13.2145 63 14.8077V34.0385Z" fill="#565656"/>
<path id="Vector_2" d="M38 25.3848H30C29.4478 25.3848 29 25.8153 29 26.3463C29 26.8773 29.4478 27.3078 30 27.3078H38C38.5523 27.3078 39 26.8773 39 26.3463C39 25.8153 38.5523 25.3848 38 25.3848Z" fill="#565656"/>
<path id="Vector_3" d="M56 21.5386H55C54.4477 21.5386 54 21.9691 54 22.5001C54 23.0311 54.4477 23.4617 55 23.4617H56C56.5522 23.4617 57 23.0311 57 22.5001C57 21.9691 56.5522 21.5386 56 21.5386Z" fill="#565656"/>
<path id="Vector_4" d="M60 21.5386H59C58.4477 21.5386 58 21.9691 58 22.5001C58 23.0311 58.4477 23.4617 59 23.4617H60C60.5522 23.4617 61 23.0311 61 22.5001C61 21.9691 60.5522 21.5386 60 21.5386Z" fill="#565656"/>
<path id="Vector_5" d="M37.0006 41.7311C37.0006 41.2001 36.5528 40.7695 36.0006 40.7695C35.4483 40.7695 35.0006 41.2001 35.0006 41.7311C35.0187 42.5841 34.7242 43.4159 34.1686 44.0811C32.6113 46.1136 32.6113 48.8841 34.1686 50.9166C35.2777 52.3032 35.2777 54.2338 34.1686 55.6205C33.3933 56.6026 32.9822 57.8059 33.0006 59.0388C33.0006 59.5698 33.4483 60.0003 34.0006 60.0003C34.5528 60.0003 35.0006 59.5698 35.0006 59.0388C34.9823 58.1852 35.2768 57.3526 35.8326 56.6868C37.3885 54.6532 37.3885 51.883 35.8326 49.8493C34.7235 48.4635 34.7235 46.5332 35.8326 45.1474C36.6078 44.166 37.019 42.9633 37.0006 41.7311Z" fill="#565656"/>
<path id="Vector_6" d="M29.0006 41.7311C29.0006 41.2001 28.5528 40.7695 28.0006 40.7695C27.4483 40.7695 27.0006 41.2001 27.0006 41.7311C27.0187 42.5841 26.7242 43.4159 26.1686 44.0811C24.6113 46.1136 24.6113 48.8841 26.1686 50.9166C27.2777 52.3032 27.2777 54.2338 26.1686 55.6205C25.3933 56.6026 24.9822 57.8059 25.0006 59.0388C25.0006 59.5698 25.4483 60.0003 26.0006 60.0003C26.5528 60.0003 27.0006 59.5698 27.0006 59.0388C26.9823 58.1852 27.2768 57.3526 27.8326 56.6868C29.3885 54.6532 29.3885 51.883 27.8326 49.8493C26.7235 48.4635 26.7235 46.5332 27.8326 45.1474C28.6078 44.166 29.019 42.9633 29.0006 41.7311Z" fill="#565656"/>
<path id="Vector_7" d="M45.0006 41.7311C45.0006 41.2001 44.5528 40.7695 44.0006 40.7695C43.4483 40.7695 43.0006 41.2001 43.0006 41.7311C43.0187 42.5841 42.7242 43.4159 42.1686 44.0811C40.6113 46.1136 40.6113 48.8841 42.1686 50.9166C43.2777 52.3032 43.2777 54.2338 42.1686 55.6205C41.3933 56.6026 40.9822 57.8059 41.0006 59.0388C41.0006 59.5698 41.4483 60.0003 42.0006 60.0003C42.5528 60.0003 43.0006 59.5698 43.0006 59.0388C42.9823 58.1852 43.2768 57.3526 43.8326 56.6868C45.3885 54.6532 45.3885 51.883 43.8326 49.8493C42.7235 48.4635 42.7235 46.5332 43.8326 45.1474C44.6079 44.166 45.019 42.9633 45.0006 41.7311Z" fill="#565656"/>
</g>
</g>
</g>
</svg>
