<svg width="32" height="32" viewBox="0 0 32 32" fill="none" xmlns="http://www.w3.org/2000/svg">
<g id="bi:info-circle" clip-path="url(#clip0_1964_96789)">
<g id="Group">
<path id="Vector" d="M16 30C12.287 30 8.72601 28.525 6.1005 25.8995C3.475 23.274 2 19.713 2 16C2 12.287 3.475 8.72601 6.1005 6.1005C8.72601 3.475 12.287 2 16 2C19.713 2 23.274 3.475 25.8995 6.1005C28.525 8.72601 30 12.287 30 16C30 19.713 28.525 23.274 25.8995 25.8995C23.274 28.525 19.713 30 16 30ZM16 32C20.2435 32 24.3131 30.3143 27.3137 27.3137C30.3143 24.3131 32 20.2435 32 16C32 11.7565 30.3143 7.68687 27.3137 4.68629C24.3131 1.68571 20.2435 0 16 0C11.7565 0 7.68687 1.68571 4.68629 4.68629C1.68571 7.68687 0 11.7565 0 16C0 20.2435 1.68571 24.3131 4.68629 27.3137C7.68687 30.3143 11.7565 32 16 32Z" fill="#4BA0B5"/>
<path id="Vector_2" d="M17.86 13.176L13.28 13.75L13.116 14.51L14.016 14.676C14.604 14.816 14.72 15.028 14.592 15.614L13.116 22.55C12.728 24.344 13.326 25.188 14.732 25.188C15.822 25.188 17.088 24.684 17.662 23.992L17.838 23.16C17.438 23.512 16.854 23.652 16.466 23.652C15.916 23.652 15.716 23.266 15.858 22.586L17.86 13.176ZM18 9C18 9.53043 17.7893 10.0391 17.4142 10.4142C17.0391 10.7893 16.5304 11 16 11C15.4696 11 14.9609 10.7893 14.5858 10.4142C14.2107 10.0391 14 9.53043 14 9C14 8.46957 14.2107 7.96086 14.5858 7.58579C14.9609 7.21071 15.4696 7 16 7C16.5304 7 17.0391 7.21071 17.4142 7.58579C17.7893 7.96086 18 8.46957 18 9Z" fill="#4BA0B5"/>
</g>
</g>
<defs>
<clipPath id="clip0_1964_96789">
<rect width="32" height="32" fill="white"/>
</clipPath>
</defs>
</svg>
