<svg width="32" height="32" viewBox="0 0 24 24" fill="none" xmlns="http://www.w3.org/2000/svg">
<path d="M12 0C5.3725 0 0 5.3725 0 12C0 18.6275 5.3725 24 12 24C18.6275 24 24 18.6275 24 12C24 5.3725 18.6275 0 12 0ZM12.8212 14.8438C12.0512 14.785 11.7288 14.4037 11.1263 14.0387C10.795 15.7775 10.39 17.445 9.19 18.3163C8.81875 15.6863 9.7325 13.7138 10.1575 11.6175C9.43375 10.3988 10.2438 7.9475 11.7713 8.55C13.65 9.295 10.1438 13.0813 12.4975 13.555C14.955 14.0475 15.9588 9.29 14.435 7.745C12.2325 5.51125 8.02625 7.69375 8.54375 10.8913C8.66875 11.6725 9.4775 11.91 8.86625 12.9888C7.4575 12.6763 7.03625 11.565 7.09125 10.0838C7.1775 7.65875 9.27 5.96 11.3675 5.72625C14.0213 5.43125 16.5113 6.7 16.8563 9.1975C17.2425 12.015 15.6575 15.0638 12.8212 14.8438Z" fill="#F9F9F9"/>
</svg>
