<?xml version="1.0" standalone="no"?>
<!DOCTYPE svg PUBLIC "-//W3C//DTD SVG 20010904//EN"
 "http://www.w3.org/TR/2001/REC-SVG-20010904/DTD/svg10.dtd">
<svg version="1.0" xmlns="http://www.w3.org/2000/svg"
 width="784.000000pt" height="784.000000pt" viewBox="0 0 784.000000 784.000000"
 preserveAspectRatio="xMidYMid meet">
<metadata>
Created by potrace 1.14, written by Peter Selinger 2001-2017
</metadata>
<g transform="translate(0.000000,784.000000) scale(0.100000,-0.100000)"
fill="#000000" stroke="none">
<path d="M4627 7754 c-2 -3 -38 -7 -78 -9 -41 -2 -90 -6 -109 -9 -70 -10 -136
-18 -165 -22 -51 -5 -130 -19 -235 -40 -100 -20 -314 -78 -340 -93 -9 -5 -31
-12 -50 -16 -19 -4 -39 -11 -45 -14 -5 -4 -32 -16 -60 -26 -59 -21 -191 -85
-290 -140 -201 -111 -435 -302 -595 -485 -30 -35 -60 -68 -65 -74 -17 -18
-119 -148 -135 -172 -8 -12 -47 -68 -86 -125 -39 -57 -89 -134 -111 -170 l-40
-66 61 -65 c34 -35 124 -131 201 -213 77 -81 163 -171 190 -200 204 -214 334
-351 360 -379 17 -17 102 -107 190 -200 88 -93 176 -185 195 -206 19 -20 96
-101 170 -179 74 -78 155 -164 180 -190 54 -57 316 -334 380 -401 171 -180
333 -350 360 -380 32 -35 293 -309 380 -400 43 -45 280 -294 365 -385 207
-219 335 -354 360 -379 17 -17 54 -60 83 -96 66 -83 62 -76 99 -135 18 -27 36
-55 40 -61 44 -59 115 -223 128 -294 3 -14 8 -36 11 -50 4 -14 9 -65 11 -115
4 -80 -4 -142 -31 -246 -8 -29 -49 -124 -61 -139 -6 -8 -26 -39 -44 -68 -48
-81 -167 -206 -246 -260 -22 -15 -42 -29 -45 -32 -10 -10 -45 -31 -62 -36 -10
-4 -18 -10 -18 -14 0 -4 -11 -11 -25 -14 -14 -4 -25 -11 -25 -16 0 -6 -5 -10
-10 -10 -6 0 -44 -15 -84 -34 -112 -53 -314 -121 -391 -131 -11 -2 -40 -8 -65
-14 -50 -11 -86 -17 -145 -25 -22 -3 -59 -8 -81 -11 -141 -19 -594 -19 -695 0
-10 2 -49 7 -86 10 -37 4 -75 8 -83 10 -8 2 -37 7 -65 10 -27 4 -61 9 -75 11
-14 3 -61 11 -105 20 -44 8 -91 17 -105 19 -14 2 -74 16 -135 30 -60 15 -114
28 -120 29 -5 1 -19 5 -30 9 -11 3 -31 8 -45 11 -33 6 -269 74 -295 85 -11 4
-54 18 -95 31 -41 13 -86 27 -100 33 -47 19 -65 25 -145 52 -77 27 -336 128
-420 165 -22 9 -47 20 -55 23 -8 3 -66 28 -128 56 -62 28 -109 44 -105 36 38
-67 300 -331 412 -415 19 -14 43 -33 55 -44 100 -88 383 -268 581 -370 44 -22
82 -44 83 -48 2 -5 7 -8 12 -8 4 0 52 -21 107 -46 158 -74 289 -129 415 -175
239 -88 641 -208 671 -201 4 1 7 -3 7 -9 0 -5 4 -8 8 -5 4 2 46 -5 92 -16 47
-11 96 -22 110 -24 14 -2 48 -9 75 -14 85 -16 109 -20 145 -26 19 -2 46 -7 60
-9 14 -3 43 -7 65 -10 22 -3 56 -7 75 -10 19 -2 62 -7 95 -11 33 -3 71 -7 85
-10 153 -24 769 -24 897 0 10 2 41 7 68 10 97 13 220 34 247 42 10 3 30 7 45
10 86 15 170 42 318 102 136 56 463 237 473 264 2 4 8 8 13 8 9 0 59 37 134
100 70 58 206 201 268 281 37 48 67 89 67 92 0 3 16 29 35 59 19 29 38 62 41
73 4 11 12 27 18 35 16 20 90 202 101 250 1 3 7 25 15 50 7 25 13 48 12 52 -1
4 2 18 8 32 16 43 25 157 25 326 0 184 -7 245 -45 405 -22 95 -68 236 -81 250
-5 5 -9 14 -9 21 0 41 -183 375 -252 459 -4 5 -32 42 -61 80 -28 39 -54 72
-57 75 -3 3 -29 34 -59 70 -64 77 -369 382 -495 495 -49 44 -114 103 -144 130
-30 28 -66 59 -79 70 -14 11 -45 39 -70 63 -24 23 -47 42 -50 42 -3 0 -15 10
-27 22 -18 20 -78 73 -162 145 -12 10 -54 47 -95 83 -104 92 -121 107 -149
131 -56 47 -136 116 -162 139 -15 14 -34 30 -41 35 -16 14 -179 156 -193 169
-6 6 -42 38 -80 71 -62 54 -548 540 -593 592 -11 12 -32 39 -47 60 -16 21 -35
46 -44 55 -30 34 -40 48 -101 140 -62 95 -155 277 -163 319 -3 13 -5 24 -6 24
-1 0 -3 7 -5 15 -1 8 -8 41 -14 72 -38 179 18 355 154 491 84 84 86 85 155
128 90 57 248 133 299 144 9 2 48 11 86 20 80 18 105 23 195 32 77 9 385 8
453 -1 26 -3 66 -8 90 -11 44 -4 70 -8 167 -25 77 -14 99 -18 118 -24 9 -3 29
-7 45 -10 15 -3 35 -7 45 -10 9 -3 28 -7 42 -10 51 -10 216 -57 232 -66 10 -6
28 -10 41 -10 13 0 27 -4 33 -8 5 -5 29 -14 54 -22 25 -7 59 -18 75 -25 17 -7
57 -22 90 -33 89 -30 215 -80 257 -103 10 -5 22 -9 27 -9 10 0 79 -31 238
-106 51 -24 95 -43 97 -42 2 2 12 -4 22 -13 16 -13 41 -26 64 -34 20 -6 67
-32 78 -42 7 -7 17 -13 21 -13 5 0 40 -18 80 -39 39 -22 68 -34 64 -28 -8 14
-53 77 -68 94 -5 6 -37 46 -70 89 -33 42 -137 153 -230 248 -179 180 -229 226
-244 226 -6 0 -14 6 -18 14 -13 21 -218 172 -346 253 -185 117 -446 246 -672
334 -33 13 -64 24 -70 26 -5 1 -43 13 -83 27 -41 14 -82 26 -92 26 -11 0 -21
4 -24 9 -5 7 -70 25 -78 21 -2 -1 -16 4 -33 10 -16 7 -41 14 -55 16 -14 3 -43
10 -65 16 -22 5 -49 12 -60 14 -42 10 -235 44 -280 50 -16 2 -43 6 -60 9 -84
12 -168 17 -357 20 -113 2 -209 1 -211 -1z"/>
<path d="M1973 5825 c-10 -22 -21 -42 -24 -45 -3 -3 -19 -32 -35 -65 -17 -33
-39 -76 -49 -95 -11 -19 -20 -37 -20 -40 -4 -14 -19 -46 -25 -50 -3 -3 -39
-70 -80 -150 -41 -80 -95 -184 -120 -232 -25 -48 -82 -158 -127 -245 -45 -87
-102 -196 -127 -243 -25 -47 -69 -132 -98 -190 -29 -58 -55 -107 -58 -110 -3
-3 -35 -63 -71 -135 -36 -71 -94 -184 -129 -250 -34 -66 -94 -181 -132 -255
-39 -74 -75 -141 -80 -147 -6 -7 -7 -13 -2 -13 5 0 5 -4 -1 -8 -5 -4 -26 -38
-45 -77 -19 -38 -38 -71 -42 -73 -5 -2 -8 -10 -8 -17 0 -7 -15 -44 -34 -81
-51 -103 -168 -353 -171 -364 0 -3 -6 -15 -13 -26 -6 -12 -8 -24 -5 -28 3 -3
2 -6 -4 -6 -6 0 -14 -10 -18 -22 -4 -13 -8 -27 -10 -33 -2 -5 -31 -73 -65
-150 -34 -77 -63 -144 -64 -150 -2 -5 -8 -21 -13 -35 -41 -97 -96 -242 -128
-335 -20 -60 -41 -119 -45 -130 -10 -24 -48 -155 -53 -181 -2 -10 -9 -38 -16
-62 -7 -24 -14 -56 -16 -72 -2 -16 -6 -37 -9 -47 -6 -17 -10 -43 -22 -123 -10
-62 -11 -370 -2 -376 4 -3 6 -9 4 -13 -4 -6 -1 -26 20 -116 3 -11 7 -30 10
-43 8 -38 63 -173 102 -247 38 -73 177 -285 210 -320 10 -11 23 -28 28 -37 5
-9 25 -35 44 -58 19 -22 45 -53 57 -68 27 -32 28 -30 79 68 22 41 44 78 49 82
6 4 7 8 3 8 -4 0 8 26 25 58 18 31 43 80 57 107 14 28 27 52 30 55 3 3 27 48
54 100 47 92 89 171 197 377 29 54 56 104 62 111 5 6 6 12 1 12 -5 0 -4 4 1 8
15 11 57 92 48 92 -4 0 -3 4 3 8 9 6 89 153 183 337 14 28 30 53 36 57 5 4 7
8 3 8 -3 0 18 45 48 100 30 55 54 102 54 106 0 3 9 19 21 35 11 16 17 29 13
29 -3 0 -1 6 6 14 6 8 26 43 44 78 18 35 54 104 80 153 27 50 80 151 119 225
38 74 72 137 73 139 2 2 736 5 1631 6 896 2 1632 3 1637 4 5 0 -23 34 -62 74
-38 39 -92 95 -119 123 -26 28 -106 113 -178 189 -71 75 -170 179 -220 231
-49 51 -133 139 -185 195 -52 56 -131 139 -175 184 l-80 82 -843 -4 -843 -4
77 148 c42 81 81 154 86 161 6 6 7 12 2 12 -5 0 -4 4 1 8 6 4 45 75 87 157 42
83 104 202 137 265 33 63 93 178 132 255 l72 141 -19 23 c-10 12 -48 53 -84
91 -36 38 -112 119 -170 181 -58 62 -125 134 -150 160 -25 26 -78 82 -119 125
-40 44 -131 140 -201 214 -71 74 -144 153 -163 175 l-35 39 -19 -39z"/>
</g>
</svg>
