<svg width="32" height="32" viewBox="0 0 32 32" fill="none" xmlns="http://www.w3.org/2000/svg">
<path d="M25.2836 16.2442C25.1016 16.0015 24.7573 15.9523 24.5145 16.1343C24.3979 16.2218 24.3208 16.352 24.3003 16.4964L23.9954 18.6334C23.988 18.6608 23.9784 18.6876 23.9668 18.7136C24.5271 17.9696 24.9793 17.15 25.31 16.2794L25.2836 16.2442Z" fill="#1D3566"/>
<path d="M23.4508 19.1045C23.4249 19.1045 23.399 19.1029 23.3733 19.0996L20.1101 18.6332C19.8097 18.5901 19.6012 18.3118 19.6442 18.0114C19.6442 18.0114 19.6442 18.0114 19.6442 18.0113L19.9491 15.8743C19.9916 15.5738 19.7826 15.2959 19.4822 15.2533C19.3385 15.233 19.1925 15.2704 19.0762 15.3573L17.349 16.6522C17.1063 16.8342 16.7619 16.785 16.5799 16.5423L14.6022 13.9053C14.4201 13.6626 14.4693 13.3183 14.7121 13.1362L16.4387 11.8414C16.6815 11.6593 16.7306 11.315 16.5486 11.0723C16.4611 10.9557 16.3309 10.8786 16.1866 10.858L14.0495 10.5526C13.7492 10.5099 13.5403 10.2317 13.5831 9.93131C13.5831 9.93111 13.5831 9.9309 13.5831 9.9307L14.0495 6.66802C14.0922 6.36766 14.3704 6.15876 14.6708 6.20155C14.671 6.20155 14.6712 6.20161 14.6714 6.20161L16.8084 6.50706C17.0282 6.53892 17.2455 6.43441 17.3578 6.24282C17.4745 6.05239 17.4613 5.80971 17.3248 5.63302L16.0311 3.90692C15.849 3.66417 15.8982 3.31986 16.141 3.13781L16.4524 2.90433C15.9479 2.87996 15.4421 2.89348 14.9395 2.94499C9.51344 3.56453 5.61708 8.46547 6.23662 13.8915C6.57414 16.8475 8.22456 19.4943 10.7303 21.0982C11.6451 21.6654 12.207 22.6604 12.2201 23.7368V25.9567C12.2201 26.867 12.958 27.6048 13.8682 27.6048H18.2631C19.1734 27.6048 19.9112 26.867 19.9112 25.9567V23.7824C19.9252 22.6807 20.4986 21.6619 21.433 21.0784C22.299 20.5165 23.0725 19.8234 23.7255 19.0238C23.6426 19.0745 23.5479 19.1024 23.4508 19.1045ZM16.6151 25.9567H15.5163V24.3086H16.6151V25.9567ZM15.5163 23.2099C15.516 21.7574 14.6203 20.4554 13.2639 19.9357C9.3079 18.3888 7.35492 13.9279 8.90179 9.9719C9.50073 8.44007 10.575 7.14061 11.9669 6.26424L12.5498 7.19377C9.46818 9.13281 8.54202 13.2028 10.4811 16.2844C11.2323 17.4783 12.3468 18.3998 13.6606 18.9133C15.4411 19.5943 16.6164 21.3036 16.6151 23.2099H15.5163Z" fill="#1D3566"/>
<path d="M13.8672 30.3516V30.9009C13.8672 31.5078 14.3591 31.9997 14.9659 31.9997H17.1634C17.7702 31.9997 18.2621 31.5078 18.2621 30.9009V30.3516H13.8672Z" fill="#1D3566"/>
<path d="M10.4322 21.5619C10.1067 21.3509 9.79327 21.1218 9.49338 20.8758C8.66405 22.4902 6.68305 23.1266 5.0686 22.2974C3.96974 21.7329 3.28029 20.5998 3.28393 19.3645C3.28647 17.7035 4.52343 16.3035 6.17138 16.0963C5.96977 15.4899 5.82412 14.8663 5.73629 14.2334L5.64015 14.6905C5.51531 15.2843 4.93264 15.6644 4.33884 15.5396C4.19663 15.5097 4.06176 15.4519 3.94207 15.3695L2.79939 14.585L1.79845 15.5837L2.58514 16.7275C2.92945 17.2272 2.80351 17.9114 2.30386 18.2557C2.18403 18.3382 2.04903 18.3962 1.90667 18.4261L0.537109 18.7146V20.0198L1.90667 20.3083C2.50047 20.4333 2.88049 21.016 2.75544 21.6098C2.72543 21.7524 2.66734 21.8875 2.58459 22.0074L1.79845 23.1452L2.79939 24.1439L3.94097 23.3572C4.44061 23.0129 5.12485 23.1389 5.46916 23.6385C5.5517 23.7583 5.60966 23.8933 5.6396 24.0357L5.92747 25.4075H7.2333L7.52117 24.0379C7.64615 23.4441 8.22882 23.064 8.82261 23.189C8.96496 23.2189 9.09997 23.2769 9.2198 23.3594L10.3608 24.1439L11.5392 22.9655C11.3416 22.3849 10.9509 21.8894 10.4322 21.5619Z" fill="#1D3566"/>
<path d="M18.2621 28.1543H13.8672V29.253H18.2621V28.1543Z" fill="#1D3566"/>
<path d="M29.7816 9.47092C28.8806 9.3421 28.2546 8.50713 28.3834 7.60611C28.4453 7.17341 28.6765 6.78302 29.0263 6.52084L30.3134 5.55506L28.9949 3.79709L27.7078 4.76232C26.9797 5.30867 25.9467 5.1613 25.4004 4.43332C25.1384 4.0842 25.0256 3.64533 25.0868 3.21312L25.3142 1.61996L23.1393 1.30957L22.9118 2.90273C22.7829 3.80375 21.948 4.42975 21.047 4.30093C20.6143 4.23905 20.2239 4.00784 19.9618 3.6581L18.996 2.36874L17.238 3.68722L18.2032 4.97438C18.7494 5.70249 18.602 6.7355 17.8739 7.28178C17.524 7.54423 17.0843 7.65685 16.6513 7.59484L15.0581 7.36741L14.7461 9.54289L16.3393 9.77033C17.2403 9.89922 17.8663 10.7341 17.7375 11.6351C17.6756 12.0678 17.4444 12.4582 17.0946 12.7204L15.808 13.6862L17.1265 15.4442L18.4136 14.4789C19.1418 13.9327 20.1748 14.0802 20.721 14.8083C20.9835 15.1581 21.0961 15.598 21.0341 16.0309L20.8067 17.624L22.9866 17.9361L23.214 16.3429C23.3429 15.4419 24.1778 14.8159 25.0788 14.9447C25.5115 15.0066 25.9019 15.2378 26.1641 15.5875L27.1299 16.8742L28.8878 15.5557L27.9193 14.2663C27.3733 13.5381 27.521 12.5051 28.2493 11.9591C28.5984 11.6973 29.037 11.5847 29.469 11.6459L31.0622 11.8733L31.3726 9.69836L29.7816 9.47092ZM23.0613 12.9171C21.2408 12.9171 19.7651 11.4414 19.7651 9.6209C19.7651 7.80044 21.2408 6.32471 23.0613 6.32471C24.8817 6.32471 26.3575 7.80044 26.3575 9.6209C26.3553 11.4405 24.8808 12.915 23.0613 12.9171Z" fill="#1D3566"/>
<path d="M30.3475 20.4634H26.502V21.5621H30.3475V20.4634Z" fill="#1D3566"/>
<path d="M26.3049 23.337L25.6016 24.1812L28.898 26.9275L29.6013 26.0834L26.3049 23.337Z" fill="#1D3566"/>
<path d="M24.3058 24.8579H23.207V28.7035H24.3058V24.8579Z" fill="#1D3566"/>
<path d="M4.3946 8.39347L0 9.492L0.266308 10.5573L4.66091 9.45881L4.3946 8.39347Z" fill="#1D3566"/>
<path d="M1.55037 2.98684L0.912109 3.88043L4.75735 6.62697L5.39561 5.73338L1.55037 2.98684Z" fill="#1D3566"/>
<path d="M6.68359 -0.000120947L5.61914 0.272034L6.74273 4.6666L7.80718 4.39445L6.68359 -0.000120947Z" fill="#1D3566"/>
</svg>
