<svg width="34" height="30" viewBox="0 0 34 30" fill="none" xmlns="http://www.w3.org/2000/svg">
<path d="M17.0007 0C16.3635 -9.77846e-09 15.7325 0.129252 15.1438 0.380378C14.5551 0.631503 14.0202 0.999582 13.5696 1.4636C13.1191 1.92762 12.7616 2.47849 12.5178 3.08476C12.2739 3.69103 12.1484 4.34083 12.1484 4.99705C12.1484 5.65327 12.2739 6.30307 12.5178 6.90934C12.7616 7.51561 13.1191 8.06647 13.5696 8.53049C14.0202 8.99451 14.5551 9.36259 15.1438 9.61372C15.7325 9.86484 16.3635 9.9941 17.0007 9.9941C18.2876 9.9941 19.5218 9.46762 20.4318 8.53049C21.3418 7.59337 21.853 6.32235 21.853 4.99705C21.853 3.67175 21.3418 2.40073 20.4318 1.4636C19.5218 0.526473 18.2876 0 17.0007 0Z" fill="#1D3566"/>
<path d="M27.928 2.49561C26.9619 2.49561 26.0353 2.89086 25.3521 3.59441C24.669 4.29796 24.2852 5.25217 24.2852 6.24714C24.2852 7.24211 24.669 8.19633 25.3521 8.89988C26.0353 9.60343 26.9619 9.99868 27.928 9.99868C28.8942 9.99868 29.8207 9.60343 30.5039 8.89988C31.1871 8.19633 31.5709 7.24211 31.5709 6.24714C31.5709 5.25217 31.1871 4.29796 30.5039 3.59441C29.8207 2.89086 28.8942 2.49561 27.928 2.49561Z" fill="#1D3566"/>
<path d="M6.07059 2.49561C5.10444 2.49561 4.17787 2.89086 3.4947 3.59441C2.81153 4.29796 2.42773 5.25217 2.42773 6.24714C2.42773 7.24211 2.81153 8.19633 3.4947 8.89988C4.17787 9.60343 5.10444 9.99868 6.07059 9.99868C7.03673 9.99868 7.96331 9.60343 8.64648 8.89988C9.32965 8.19633 9.71344 7.24211 9.71344 6.24714C9.71344 5.25217 9.32965 4.29796 8.64648 3.59441C7.96331 2.89086 7.03673 2.49561 6.07059 2.49561Z" fill="#1D3566"/>
<path d="M9.71484 14.9835C9.71933 14.3232 9.97718 13.6916 10.4321 13.2263C10.8871 12.7611 11.5023 12.5 12.1434 12.5H21.8577C22.5018 12.5 23.1195 12.7635 23.575 13.2325C24.0304 13.7016 24.2863 14.3377 24.2863 15.001V22.5041C24.2861 23.2912 24.1665 24.0735 23.9317 24.8226C23.3939 26.52 22.2862 27.9644 20.8074 28.8965C19.3285 29.8285 17.5755 30.1871 15.8631 29.9078C14.1506 29.6286 12.591 28.7297 11.4641 27.3728C10.3372 26.0158 9.71704 24.2896 9.71484 22.5041V15.001V14.9835Z" fill="#1D3566"/>
<path d="M7.28571 15.001C7.28571 14.0882 7.52128 13.2353 7.93657 12.5H2.42857C1.78447 12.5 1.16676 12.7635 0.711312 13.2325C0.255867 13.7016 3.36146e-07 14.3377 3.36146e-07 15.001V21.2536C-0.000330402 22.2773 0.243406 23.2854 0.709805 24.1894C1.1762 25.0934 1.851 25.8656 2.67493 26.4383C3.49886 27.011 4.44672 27.3666 5.43528 27.4738C6.42383 27.5811 7.42284 27.4367 8.34457 27.0535C7.64557 25.6443 7.2826 24.084 7.28571 22.5016V15.001Z" fill="#1D3566"/>
<path d="M26.7151 15.001V22.5041C26.7151 24.1423 26.3338 25.6879 25.6562 27.0535C26.578 27.4367 27.577 27.5811 28.5655 27.4738C29.5541 27.3666 30.502 27.011 31.3259 26.4383C32.1498 25.8656 32.8246 25.0934 33.291 24.1894C33.7574 23.2854 34.0011 22.2773 34.0008 21.2536V15.001C34.0008 14.3377 33.7449 13.7016 33.2895 13.2325C32.8341 12.7635 32.2163 12.5 31.5722 12.5H26.0643C26.4771 13.2353 26.7151 14.0882 26.7151 15.001Z" fill="#1D3566"/>
</svg>
