<svg width="30" height="30" viewBox="0 0 30 30" fill="none" xmlns="http://www.w3.org/2000/svg">
<path d="M29.1432 2.53418H24.0367C23.9344 2.53418 23.8363 2.57513 23.764 2.64802C23.6917 2.7209 23.651 2.81976 23.651 2.92284C23.651 2.98907 23.6718 3.04833 23.7003 3.10236V6.06349C23.7004 6.17201 23.6793 6.27949 23.6382 6.37977C23.597 6.48005 23.5366 6.57117 23.4605 6.6479C23.3844 6.72464 23.294 6.78548 23.1945 6.82696C23.095 6.86843 22.9883 6.88972 22.8807 6.88961H21.2915C21.1915 6.88961 21.0926 6.86977 21.0003 6.83124C20.908 6.7927 20.8241 6.73621 20.7534 6.665C20.6828 6.59379 20.6267 6.50925 20.5885 6.41621C20.5503 6.32317 20.5306 6.22345 20.5306 6.12275V3.15028C20.5816 3.08544 20.6101 3.00556 20.6119 2.92284C20.612 2.87177 20.6021 2.82118 20.5827 2.77397C20.5634 2.72676 20.535 2.68387 20.4992 2.64776C20.4633 2.61165 20.4208 2.58302 20.3739 2.56353C20.3271 2.54404 20.2769 2.53407 20.2262 2.53418H9.93285C9.83057 2.53418 9.73249 2.57513 9.66017 2.64802C9.58785 2.7209 9.54722 2.81976 9.54722 2.92284C9.54722 2.98297 9.56365 3.03787 9.58786 3.08928V6.0844C9.58786 6.19026 9.56717 6.29508 9.52698 6.39288C9.48679 6.49067 9.42788 6.57954 9.35361 6.65439C9.27934 6.72924 9.19118 6.78861 9.09414 6.82912C8.99711 6.86963 8.89311 6.89048 8.78808 6.89048H7.37701C7.16283 6.89048 6.95742 6.80473 6.80597 6.65209C6.65453 6.49945 6.56944 6.29243 6.56944 6.07656V3.11107C6.60378 3.05428 6.62257 2.98933 6.62392 2.92284C6.62403 2.87177 6.61413 2.82118 6.59479 2.77397C6.57545 2.72676 6.54705 2.68387 6.51122 2.64776C6.47539 2.61165 6.43284 2.58302 6.386 2.56353C6.33916 2.54404 6.28896 2.53407 6.23829 2.53418H0.857711C0.630452 2.53441 0.412553 2.62544 0.251776 2.78732C0.0909978 2.9492 0.000457608 3.16872 0 3.39777V29.1347C0 29.6123 0.384759 30 0.857711 30H29.1432C29.3706 29.9996 29.5885 29.9082 29.7491 29.746C29.9098 29.5837 30 29.3639 30 29.1347V3.39777C29.9995 3.16888 29.9091 2.94948 29.7485 2.78763C29.5879 2.62577 29.3703 2.53464 29.1432 2.53418ZM29.1432 29.2227H0.857711C0.846283 29.2227 0.834969 29.2204 0.824422 29.216C0.813875 29.2116 0.804305 29.2051 0.796265 29.1969C0.788224 29.1887 0.781874 29.179 0.77758 29.1683C0.773286 29.1577 0.771134 29.1462 0.771248 29.1347V9.72526H29.2288V29.1338C29.229 29.1454 29.2269 29.1568 29.2228 29.1675C29.2186 29.1782 29.2123 29.188 29.2043 29.1963C29.1964 29.2045 29.1869 29.2111 29.1764 29.2157C29.1659 29.2202 29.1546 29.2226 29.1432 29.2227Z" fill="#1D3566"/>
<path d="M8.1825 6.00418C8.3952 6.00418 8.56812 5.8299 8.56812 5.61552V0.38866C8.56812 0.33762 8.55815 0.287081 8.53877 0.239926C8.51939 0.192772 8.49099 0.149926 8.45518 0.113836C8.41937 0.0777455 8.37686 0.0491171 8.33007 0.0295851C8.28328 0.0100531 8.23314 0 8.1825 0C8.13186 0 8.08171 0.0100531 8.03493 0.0295851C7.98814 0.0491171 7.94563 0.0777455 7.90982 0.113836C7.87401 0.149926 7.84561 0.192772 7.82623 0.239926C7.80685 0.287081 7.79687 0.33762 7.79688 0.38866V5.61639C7.79688 5.83077 7.9698 6.00418 8.1825 6.00418Z" fill="#1D3566"/>
<path d="M22.1493 6.00418C22.362 6.00418 22.5349 5.8299 22.5349 5.61552V0.38866C22.5349 0.285581 22.4943 0.186724 22.422 0.113836C22.3497 0.0409481 22.2516 0 22.1493 0C22.047 0 21.9489 0.0409481 21.8766 0.113836C21.8043 0.186724 21.7637 0.285581 21.7637 0.38866V5.61639C21.7637 5.83077 21.9357 6.00418 22.1493 6.00418Z" fill="#1D3566"/>
<path d="M6.18971 15.6048C7.36346 15.6048 8.31496 14.6458 8.31496 13.4628C8.31496 12.2798 7.36346 11.3208 6.18971 11.3208C5.01596 11.3208 4.06445 12.2798 4.06445 13.4628C4.06445 14.6458 5.01596 15.6048 6.18971 15.6048Z" fill="#1D3566"/>
<path d="M12.2971 15.6048C13.4709 15.6048 14.4224 14.6458 14.4224 13.4628C14.4224 12.2798 13.4709 11.3208 12.2971 11.3208C11.1234 11.3208 10.1719 12.2798 10.1719 13.4628C10.1719 14.6458 11.1234 15.6048 12.2971 15.6048Z" fill="#1D3566"/>
<path d="M18.4046 15.6048C19.5783 15.6048 20.5298 14.6458 20.5298 13.4628C20.5298 12.2799 19.5783 11.3209 18.4046 11.3209C17.2308 11.3209 16.2793 12.2799 16.2793 13.4628C16.2793 14.6458 17.2308 15.6048 18.4046 15.6048Z" fill="#1D3566"/>
<path d="M6.18971 21.5701C7.36346 21.5701 8.31496 20.6111 8.31496 19.4281C8.31496 18.2451 7.36346 17.2861 6.18971 17.2861C5.01596 17.2861 4.06445 18.2451 4.06445 19.4281C4.06445 20.6111 5.01596 21.5701 6.18971 21.5701Z" fill="#1D3566"/>
<path d="M12.2971 21.5701C13.4709 21.5701 14.4224 20.6111 14.4224 19.4281C14.4224 18.2451 13.4709 17.2861 12.2971 17.2861C11.1234 17.2861 10.1719 18.2451 10.1719 19.4281C10.1719 20.6111 11.1234 21.5701 12.2971 21.5701Z" fill="#1D3566"/>
<path d="M18.4046 21.5701C19.5783 21.5701 20.5298 20.6111 20.5298 19.4281C20.5298 18.2451 19.5783 17.2861 18.4046 17.2861C17.2308 17.2861 16.2793 18.2451 16.2793 19.4281C16.2793 20.6111 17.2308 21.5701 18.4046 21.5701Z" fill="#1D3566"/>
<path d="M6.18971 27.5345C7.36346 27.5345 8.31496 26.5755 8.31496 25.3925C8.31496 24.2095 7.36346 23.2505 6.18971 23.2505C5.01596 23.2505 4.06445 24.2095 4.06445 25.3925C4.06445 26.5755 5.01596 27.5345 6.18971 27.5345Z" fill="#1D3566"/>
<path d="M12.2971 27.5345C13.4709 27.5345 14.4224 26.5755 14.4224 25.3925C14.4224 24.2095 13.4709 23.2505 12.2971 23.2505C11.1234 23.2505 10.1719 24.2095 10.1719 25.3925C10.1719 26.5755 11.1234 27.5345 12.2971 27.5345Z" fill="#1D3566"/>
<path d="M18.4046 27.5345C19.5783 27.5345 20.5298 26.5755 20.5298 25.3925C20.5298 24.2095 19.5783 23.2505 18.4046 23.2505C17.2308 23.2505 16.2793 24.2095 16.2793 25.3925C16.2793 26.5755 17.2308 27.5345 18.4046 27.5345Z" fill="#1D3566"/>
<path d="M24.3694 15.6048C25.5431 15.6048 26.4947 14.6458 26.4947 13.4628C26.4947 12.2798 25.5431 11.3208 24.3694 11.3208C23.1957 11.3208 22.2441 12.2798 22.2441 13.4628C22.2441 14.6458 23.1957 15.6048 24.3694 15.6048Z" fill="#1D3566"/>
<path d="M24.3694 21.5701C25.5431 21.5701 26.4947 20.6111 26.4947 19.4281C26.4947 18.2451 25.5431 17.2861 24.3694 17.2861C23.1957 17.2861 22.2441 18.2451 22.2441 19.4281C22.2441 20.6111 23.1957 21.5701 24.3694 21.5701Z" fill="#1D3566"/>
<path d="M24.3694 27.5345C25.5431 27.5345 26.4947 26.5755 26.4947 25.3925C26.4947 24.2095 25.5431 23.2505 24.3694 23.2505C23.1957 23.2505 22.2441 24.2095 22.2441 25.3925C22.2441 26.5755 23.1957 27.5345 24.3694 27.5345Z" fill="#1D3566"/>
</svg>
