<svg width="252" height="48" viewBox="0 0 252 48" fill="none" xmlns="http://www.w3.org/2000/svg">
<g id="Logo">
<g id="Group">
<path id="Vector" d="M48.0786 38.3289C48.9887 31.8128 44.1597 27.4841 41.3887 24.961C40.8785 24.498 40.3684 24.0467 39.8698 23.6011C38.6814 22.5536 37.8698 21.8418 37.3771 21.4078C36.5886 20.7192 35.8466 20.0826 35.1857 19.5213C34.2292 18.6821 33.2379 17.7967 32.293 16.894V16.8882C30.0379 14.6486 23.4407 8.51444 31.3017 5.51101C38.1771 3.41613 48.4844 9.52137 48.4844 9.52137C48.4844 9.52137 48.4786 9.52138 48.4786 9.5156C42.2756 0.759914 32.3567 -0.131286 29.5219 0.0133882C21.3306 0.43005 17.2958 3.4219 13.8929 9.17415L35.3828 31.8359C36.0901 32.6808 36.635 33.491 36.9713 34.2607C37.8118 36.1877 37.5336 37.9875 36.1365 39.6541C34.1133 42.0673 26.919 45.9793 10.9479 38.6703C11.4059 39.278 11.9392 39.8682 12.5363 40.4354C17.5161 45.1749 26.9422 48.2883 34.7915 47.97C36.4205 47.8774 38.0379 47.6748 39.6032 47.2061C46.0264 44.9029 47.667 40.7478 48.0786 38.3289Z" fill="#1D3566"/>
<path id="Vector_2" d="M25.1695 25.2679L14.6187 25.32L18.3463 18.1384L12.4448 11.8653L5.67953 24.8744L4.32879 27.4727C-1.30602 39.3707 -1.18428 41.8533 3.21574 47.0616L11.1114 32.0444L31.5869 32.0271L25.1695 25.2679Z" fill="#1476BF"/>
</g>
<g id="Group_2">
<g id="Group_3">
<path id="Vector_3" d="M73.8485 2.90228C73.2051 2.47984 72.492 2.26573 71.7152 2.26573C70.9268 2.26573 70.2079 2.47984 69.5819 2.90228C68.9152 3.35367 68.4398 3.9671 68.1732 4.72519L60.063 27.3291H65.1065L67.3152 21.1891H76.121L78.3297 27.3291H83.3732L75.2631 4.72519C74.9906 3.9671 74.5152 3.35367 73.8485 2.90228ZM74.5558 16.8373H68.8746L71.7152 8.92074L74.5558 16.8373Z" fill="#1476BF"/>
<path id="Vector_4" d="M95.586 7.01652C98.2353 7.01652 100.224 8.37644 101.673 11.1658L101.795 11.3973L105.998 9.2445L105.876 9.01301C103.574 4.53968 100.108 2.27119 95.5802 2.27119C91.986 2.27119 89.0005 3.49226 86.7048 5.89964C84.4787 8.25493 83.3541 11.2584 83.3541 14.8173C83.3541 18.3647 84.4845 21.3566 86.7048 23.7177C88.9889 26.1251 91.9744 27.3461 95.5802 27.3461C100.108 27.3461 103.569 25.0718 105.876 20.5869L105.998 20.3555L101.795 18.1969L101.673 18.4284C100.224 21.2293 98.2353 22.595 95.586 22.595C93.3251 22.595 91.4875 21.8427 90.1193 20.3555C88.7918 18.9203 88.1135 17.0569 88.1135 14.8173C88.1135 12.5662 88.786 10.697 90.1193 9.26186C91.4933 7.76882 93.3309 7.01652 95.586 7.01652Z" fill="#1476BF"/>
<g id="Group_4">
<path id="Vector_5" d="M126.713 12.4274H121.82C121.072 12.4274 120.446 12.167 119.913 11.6404C119.368 11.0964 119.107 10.4772 119.107 9.73647C119.107 8.97838 119.368 8.34181 119.913 7.80363C120.446 7.27123 121.066 7.01661 121.82 7.01661H131.924V2.27129H121.82C119.774 2.27129 118 3.00624 116.539 4.45298C115.09 5.9113 114.353 7.68789 114.353 9.74226C114.353 11.7851 115.09 13.5559 116.539 15.0026C118 16.4494 119.779 17.1843 121.82 17.1843H126.713C127.461 17.1843 128.087 17.4447 128.62 17.9887C129.159 18.5211 129.426 19.1403 129.426 19.8868C129.426 20.6333 129.165 21.2641 128.62 21.8081C128.087 22.3405 127.466 22.5951 126.713 22.5951H115.066V27.3404H126.713C128.759 27.3404 130.533 26.6055 131.994 25.1588C133.443 23.7004 134.18 21.9238 134.18 19.8868C134.18 17.844 133.443 16.079 131.994 14.6323C130.539 13.1682 128.759 12.4274 126.713 12.4274Z" fill="#1D3566"/>
<path id="Vector_6" d="M138.493 3.34195C137.762 4.0711 137.397 4.94494 137.397 5.95187V27.3347H152.313V22.5894H142.151V17.1786H149.594V12.4333H142.151V7.01667H152.313V2.27135H141.09C140.081 2.26557 139.206 2.63015 138.493 3.34195Z" fill="#1D3566"/>
<path id="Vector_7" d="M169.924 15.6913C170.968 15.2167 171.797 14.4297 172.388 13.3476C172.985 12.2943 173.287 11.1196 173.287 9.85801C173.287 7.72262 172.44 5.88236 170.771 4.40668C169.188 2.98887 167.263 2.27129 165.055 2.27129H158.782C157.773 2.27129 156.898 2.63587 156.185 3.34767C155.455 4.07683 155.089 4.95065 155.089 5.95758V27.3404H159.843V17.2653H164.052C165.182 17.2653 166.214 17.9077 167.118 19.175C168.202 20.6854 168.753 22.5778 168.753 24.8057V27.3404H173.507V24.9388C173.507 23.2317 173.217 21.513 172.643 19.8347C171.994 17.873 171.078 16.4841 169.924 15.6913ZM168.527 9.85801C168.527 10.6798 168.231 11.3453 167.629 11.8834C166.944 12.4911 166.075 12.8036 165.049 12.8036H159.837V7.01661H165.049C166.063 7.01661 166.927 7.32331 167.611 7.93673C168.231 8.47492 168.527 9.1057 168.527 9.85801Z" fill="#1D3566"/>
<path id="Vector_8" d="M187.345 20.7725L180.573 2.43937L180.51 2.26576H175.449L183.802 24.9102C184.081 25.6509 184.556 26.2469 185.211 26.681C185.855 27.115 186.574 27.3349 187.345 27.3349C188.11 27.3349 188.823 27.115 189.461 26.681C190.127 26.2469 190.603 25.6451 190.869 24.9044L199.223 2.25997H194.162L187.345 20.7725Z" fill="#1D3566"/>
<path id="Vector_9" d="M206.91 2.26562H202.157V27.3348H206.91V2.26562Z" fill="#1D3566"/>
<path id="Vector_10" d="M223.206 7.01661C225.855 7.01661 227.844 8.37653 229.293 11.1659L229.415 11.3973L233.618 9.24459L233.496 9.0131C231.194 4.53977 227.728 2.27129 223.2 2.27129C219.606 2.27129 216.62 3.49235 214.325 5.89973C212.099 8.25502 210.974 11.2584 210.974 14.8174C210.974 18.3648 212.104 21.3567 214.325 23.7178C216.609 26.1252 219.594 27.3462 223.2 27.3462C227.728 27.3462 231.189 25.0719 233.496 20.587L233.618 20.3556L229.415 18.197L229.293 18.4285C227.844 21.2294 225.855 22.5951 223.206 22.5951C220.945 22.5951 219.107 21.8428 217.739 20.3556C216.412 18.9204 215.733 17.057 215.733 14.8174C215.733 12.5663 216.406 10.6971 217.739 9.26195C219.107 7.76892 220.945 7.01661 223.206 7.01661Z" fill="#1D3566"/>
<path id="Vector_11" d="M252 7.01661V2.27129H240.777C239.768 2.27129 238.892 2.63587 238.179 3.34767C237.449 4.07683 237.084 4.95065 237.084 5.95758V27.3404H252V22.5951H241.837V17.1843H249.281V12.439H241.837V7.02238H252V7.01661Z" fill="#1D3566"/>
</g>
</g>
<g id="Group_5">
<path id="Vector_12" d="M60.0561 37.676H61.2677V38.8855C61.7373 38.0811 62.7228 37.5603 63.8127 37.5603C66.1721 37.5603 67.4765 39.2096 67.4765 41.3508C67.4765 43.4919 66.1431 45.1412 63.7837 45.1412C62.7112 45.1412 61.7257 44.632 61.2735 43.8449V48H60.0619V37.676H60.0561ZM66.2185 41.345C66.2185 39.6841 65.2214 38.6077 63.6909 38.6077C62.1605 38.6077 61.1634 39.6841 61.1634 41.345C61.1634 43.0058 62.1605 44.088 63.6909 44.088C65.2214 44.088 66.2185 43.0116 66.2185 41.345Z" fill="#9A9A9A"/>
<path id="Vector_13" d="M75.251 38.7123C73.709 38.7123 73.2684 40.0548 73.2684 41.7851V45.02H72.0568V37.6764H73.2684V39.1636C73.5872 38.1567 74.2249 37.6764 75.3438 37.6764H76.3119V38.7123H75.251Z" fill="#9A9A9A"/>
<path id="Vector_14" d="M79.8421 41.345C79.8421 39.1286 81.4595 37.5545 83.7146 37.5545C85.9871 37.5545 87.6045 39.1286 87.6045 41.345C87.6045 43.544 85.9871 45.1354 83.7146 45.1354C81.4595 45.1354 79.8421 43.5498 79.8421 41.345ZM86.3639 41.345C86.3639 39.742 85.2914 38.6077 83.7146 38.6077C82.1552 38.6077 81.0827 39.742 81.0827 41.345C81.0827 42.948 82.1552 44.088 83.7146 44.088C85.2914 44.088 86.3639 42.9537 86.3639 41.345Z" fill="#9A9A9A"/>
<path id="Vector_15" d="M91.1291 37.6764H92.3871L94.5494 43.5675L96.7118 37.6764H97.9813L95.1813 45.02H93.9233L91.1291 37.6764Z" fill="#9A9A9A"/>
<path id="Vector_16" d="M103.511 34.6554V36.2873H102.12V34.6554H103.511ZM102.212 37.6762H103.424V45.0198H102.212V37.6762Z" fill="#9A9A9A"/>
<path id="Vector_17" d="M108.01 41.3451C108.01 39.2039 109.314 37.5546 111.691 37.5546C112.763 37.5546 113.766 38.0813 114.218 38.8683V34.6554H115.43V45.0198H114.218V43.8103C113.766 44.6089 112.763 45.1356 111.691 45.1356C109.308 45.1356 108.01 43.4921 108.01 41.3451ZM114.317 41.3451C114.317 39.6842 113.32 38.6079 111.789 38.6079C110.259 38.6079 109.245 39.6842 109.245 41.3451C109.245 43.006 110.259 44.0881 111.789 44.0881C113.32 44.0881 114.317 43.0118 114.317 41.3451Z" fill="#9A9A9A"/>
<path id="Vector_18" d="M127.338 42.6587C127.083 44.1575 125.732 45.1355 123.843 45.1355C121.588 45.1355 120.074 43.3994 120.074 41.3045C120.074 39.146 121.466 37.5604 123.709 37.5604C125.935 37.5604 127.269 39.0476 127.269 40.9978C127.269 41.1599 127.251 41.4029 127.24 41.5071H121.274C121.367 43.0233 122.411 44.0996 123.848 44.0996C125.089 44.0996 125.877 43.573 126.121 42.6587H127.338ZM121.327 40.5754H126.017C125.924 39.337 125.06 38.5499 123.698 38.5499C122.416 38.5499 121.553 39.2791 121.327 40.5754Z" fill="#9A9A9A"/>
<path id="Vector_19" d="M139.825 43.8103V45.0198H138.613V34.6554H139.825V38.8683C140.294 38.0813 141.28 37.5546 142.352 37.5546C144.729 37.5546 146.034 39.2039 146.034 41.3451C146.034 43.4863 144.729 45.1356 142.352 45.1356C141.291 45.1356 140.294 44.6147 139.825 43.8103ZM144.787 41.3451C144.787 39.6842 143.79 38.6079 142.242 38.6079C140.712 38.6079 139.715 39.6842 139.715 41.3451C139.715 43.006 140.712 44.0881 142.242 44.0881C143.79 44.0881 144.787 43.0118 144.787 41.3451Z" fill="#9A9A9A"/>
<path id="Vector_20" d="M157.443 42.6586C157.188 44.1574 155.837 45.1354 153.947 45.1354C151.692 45.1354 150.179 43.3994 150.179 41.3045C150.179 39.1459 151.57 37.5603 153.814 37.5603C156.04 37.5603 157.373 39.0476 157.373 40.9978C157.373 41.1598 157.356 41.4029 157.344 41.507H151.379C151.472 43.0232 152.515 44.0996 153.953 44.0996C155.193 44.0996 155.982 43.573 156.225 42.6586H157.443ZM151.431 40.5753H156.121C156.028 39.3369 155.164 38.5499 153.802 38.5499C152.521 38.5499 151.663 39.279 151.431 40.5753Z" fill="#9A9A9A"/>
<path id="Vector_21" d="M161.558 42.6587H162.723C162.827 43.6077 163.494 44.117 164.601 44.117C165.552 44.117 166.19 43.6077 166.19 43.0117C166.19 40.8242 161.755 42.7918 161.755 39.6147C161.755 38.3763 162.845 37.5604 164.451 37.5604C166.132 37.5604 167.268 38.4516 167.355 39.8057H166.172C166.068 38.874 165.111 38.5499 164.416 38.5499C163.523 38.5499 162.932 38.9608 162.932 39.5974C162.932 41.5765 167.396 39.6089 167.396 42.977C167.396 44.2906 166.277 45.1355 164.595 45.1355C162.833 45.1355 161.68 44.1922 161.558 42.6587Z" fill="#9A9A9A"/>
<path id="Vector_22" d="M174.034 35.3269V37.6764H176.382V38.7123H174.034V42.6937C174.034 43.5097 174.521 43.99 175.257 43.99H176.376V45.0259H175.211C173.756 45.0259 172.822 44.152 172.822 42.7226V38.7123H171.234V37.6764H172.822V35.3269H174.034Z" fill="#9A9A9A"/>
<path id="Vector_23" d="M186.956 42.6587H188.121C188.226 43.6077 188.892 44.117 190 44.117C190.95 44.117 191.588 43.6077 191.588 43.0117C191.588 40.8242 187.153 42.7918 187.153 39.6147C187.153 38.3763 188.243 37.5604 189.849 37.5604C191.53 37.5604 192.666 38.4516 192.753 39.8057H191.571C191.466 38.874 190.51 38.5499 189.814 38.5499C188.921 38.5499 188.33 38.9608 188.33 39.5974C188.33 41.5765 192.794 39.6089 192.794 42.977C192.794 44.2906 191.675 45.1355 189.994 45.1355C188.231 45.1355 187.078 44.1922 186.956 42.6587Z" fill="#9A9A9A"/>
<path id="Vector_24" d="M204.26 42.6587C204.005 44.1575 202.654 45.1355 200.764 45.1355C198.509 45.1355 196.996 43.3994 196.996 41.3045C196.996 39.146 198.387 37.5604 200.631 37.5604C202.857 37.5604 204.19 39.0476 204.19 40.9978C204.19 41.1599 204.173 41.4029 204.161 41.5071H198.196C198.289 43.0233 199.332 44.0996 200.77 44.0996C202.011 44.0996 202.799 43.573 203.042 42.6587H204.26ZM198.248 40.5754H202.938C202.845 39.337 201.982 38.5499 200.619 38.5499C199.338 38.5499 198.474 39.2791 198.248 40.5754Z" fill="#9A9A9A"/>
<path id="Vector_25" d="M212.039 38.7123C210.497 38.7123 210.057 40.0548 210.057 41.7851V45.02H208.845V37.6764H210.057V39.1636C210.376 38.1567 211.013 37.6764 212.132 37.6764H213.1V38.7123H212.039Z" fill="#9A9A9A"/>
<path id="Vector_26" d="M216.607 37.6764H217.865L220.027 43.5675L222.19 37.6764H223.459L220.659 45.02H219.401L216.607 37.6764Z" fill="#9A9A9A"/>
<path id="Vector_27" d="M228.991 34.6554V36.2873H227.599V34.6554H228.991ZM227.692 37.6762H228.904V45.0198H227.692V37.6762Z" fill="#9A9A9A"/>
<path id="Vector_28" d="M233.489 41.345C233.489 39.3774 234.793 37.5545 237.199 37.5545C238.909 37.5545 240.44 38.5151 240.666 40.1471H239.472C239.321 39.2559 238.364 38.6019 237.216 38.6019C235.553 38.6019 234.747 39.8404 234.747 41.3392C234.747 42.838 235.564 44.0822 237.216 44.0822C238.364 44.0822 239.199 43.5267 239.472 42.6412H240.654C240.399 44.1401 239.141 45.1354 237.205 45.1354C234.787 45.1354 233.489 43.3183 233.489 41.345Z" fill="#9A9A9A"/>
<path id="Vector_29" d="M251.999 42.6586C251.744 44.1574 250.393 45.1354 248.503 45.1354C246.248 45.1354 244.735 43.3994 244.735 41.3045C244.735 39.1459 246.126 37.5603 248.37 37.5603C250.596 37.5603 251.929 39.0476 251.929 40.9978C251.929 41.1598 251.912 41.4029 251.9 41.507H245.935C246.028 43.0232 247.071 44.0996 248.509 44.0996C249.75 44.0996 250.538 43.573 250.782 42.6586H251.999ZM245.987 40.5753H250.677C250.584 39.3369 249.721 38.5499 248.358 38.5499C247.077 38.5499 246.213 39.279 245.987 40.5753Z" fill="#9A9A9A"/>
</g>
</g>
</g>
</svg>
