<svg width="245" height="47" viewBox="0 0 245 47" fill="none" xmlns="http://www.w3.org/2000/svg">
<g id="logo">
<g id="Group">
<path id="Vector" d="M46.7441 37.3298C47.629 30.9835 42.9341 26.7677 40.24 24.3104C39.744 23.8595 39.2481 23.4199 38.7634 22.9859C37.608 21.9657 36.8189 21.2725 36.3398 20.8498C35.5733 20.1791 34.8519 19.5591 34.2094 19.0124C33.2794 18.1952 32.3156 17.3328 31.3969 16.4536V16.448C29.2045 14.2668 22.7906 8.2925 30.4332 5.36735C37.1176 3.32708 47.1386 9.27318 47.1386 9.27318C47.1386 9.27318 47.133 9.27319 47.133 9.26756C41.1023 0.740106 31.4589 -0.127864 28.7029 0.0130392C20.739 0.41884 16.8163 3.33271 13.5079 8.93501L34.401 31.0061C35.0886 31.8289 35.6184 32.618 35.9453 33.3676C36.7625 35.2444 36.492 36.9973 35.1337 38.6205C33.1667 40.9707 26.1723 44.7807 10.6447 37.6623C11.09 38.2541 11.6085 38.829 12.189 39.3814C17.0305 43.9973 26.1948 47.0296 33.8261 46.7196C35.4099 46.6294 36.9823 46.4321 38.5041 45.9756C44.7489 43.7324 46.3439 39.6857 46.7441 37.3298Z" fill="white"/>
<path id="Vector_2" d="M24.4704 24.6092L14.2127 24.6599L17.8367 17.6655L12.0991 11.5559L5.52178 24.2259L4.20856 26.7565C-1.26975 38.3444 -1.15139 40.7623 3.12643 45.8348L10.8028 31.2091L30.7096 31.1922L24.4704 24.6092Z" fill="white"/>
</g>
<g id="Group_2">
<g id="Group_3">
<path id="Vector_3" d="M71.7953 2.82546C71.1697 2.41403 70.4764 2.20551 69.7212 2.20551C68.9547 2.20551 68.2558 2.41403 67.6471 2.82546C66.9989 3.26508 66.5368 3.86253 66.2775 4.60086L58.3926 26.6155H63.296L65.4434 20.6356H74.0046L76.152 26.6155H81.0554L73.1705 4.60086C72.9056 3.86253 72.4434 3.26508 71.7953 2.82546ZM72.4829 16.3973H66.9595L69.7212 8.68705L72.4829 16.3973Z" fill="white"/>
<path id="Vector_4" d="M92.9305 6.83275C95.5062 6.83275 97.4394 8.15723 98.8484 10.8738L98.9668 11.0993L103.053 9.00266L102.935 8.7772C100.697 4.42048 97.3267 2.21112 92.9248 2.21112C89.4304 2.21112 86.5278 3.40035 84.2959 5.74498C82.1317 8.03888 81.0383 10.964 81.0383 14.4302C81.0383 17.8852 82.1373 20.799 84.2959 23.0986C86.5166 25.4432 89.4192 26.6324 92.9248 26.6324C97.3267 26.6324 100.691 24.4174 102.935 20.0494L103.053 19.824L98.9668 17.7217L98.8484 17.9472C97.4394 20.6751 95.5062 22.0052 92.9305 22.0052C90.7324 22.0052 88.9457 21.2725 87.6156 19.824C86.3249 18.4262 85.6655 16.6114 85.6655 14.4302C85.6655 12.2378 86.3193 10.4173 87.6156 9.01957C88.9514 7.56545 90.738 6.83275 92.9305 6.83275Z" fill="white"/>
<g id="Group_4">
<path id="Vector_5" d="M123.192 12.1027H118.435C117.708 12.1027 117.099 11.8491 116.581 11.3362C116.051 10.8064 115.797 10.2033 115.797 9.4819C115.797 8.74357 116.051 8.12359 116.581 7.59943C117.099 7.08091 117.702 6.83293 118.435 6.83293H128.259V2.2113H118.435C116.446 2.2113 114.721 2.9271 113.301 4.33613C111.892 5.75644 111.176 7.48672 111.176 9.48754C111.176 11.4771 111.892 13.2017 113.301 14.6108C114.721 16.0198 116.451 16.7356 118.435 16.7356H123.192C123.919 16.7356 124.528 16.9892 125.046 17.519C125.57 18.0375 125.83 18.6406 125.83 19.3677C125.83 20.0947 125.576 20.7091 125.046 21.2389C124.528 21.7574 123.925 22.0054 123.192 22.0054H111.869V26.627H123.192C125.182 26.627 126.906 25.9112 128.327 24.5022C129.736 23.0819 130.451 21.3516 130.451 19.3677C130.451 17.3781 129.736 15.6591 128.327 14.2501C126.912 12.8241 125.182 12.1027 123.192 12.1027Z" fill="white"/>
<path id="Vector_6" d="M134.644 3.25387C133.934 3.96402 133.579 4.81508 133.579 5.79577V26.6212H148.081V21.9996H138.201V16.7298H145.437V12.1082H138.201V6.83281H148.081V2.21119H137.169C136.189 2.20555 135.338 2.56063 134.644 3.25387Z" fill="white"/>
<path id="Vector_7" d="M165.203 15.2815C166.218 14.8194 167.024 14.0529 167.598 12.9989C168.179 11.9731 168.472 10.829 168.472 9.60033C168.472 7.5206 167.649 5.72831 166.026 4.2911C164.487 2.91025 162.616 2.21136 160.469 2.21136H154.371C153.39 2.21136 152.539 2.56645 151.846 3.25969C151.135 3.96984 150.78 4.82089 150.78 5.80157V26.627H155.402V16.8146H159.494C160.593 16.8146 161.596 17.4402 162.475 18.6745C163.529 20.1455 164.065 21.9885 164.065 24.1584V26.627H168.686V24.2881C168.686 22.6254 168.404 20.9515 167.846 19.317C167.215 17.4064 166.325 16.0537 165.203 15.2815ZM163.845 9.60033C163.845 10.4007 163.557 11.0488 162.971 11.573C162.306 12.1648 161.461 12.4691 160.463 12.4691H155.396V6.83299H160.463C161.449 6.83299 162.289 7.1317 162.954 7.72913C163.557 8.25329 163.845 8.86763 163.845 9.60033Z" fill="white"/>
<path id="Vector_8" d="M182.141 20.2298L175.558 2.37461L175.496 2.20553H170.575L178.697 24.2597C178.967 24.9811 179.43 25.5616 180.066 25.9843C180.692 26.407 181.391 26.6212 182.141 26.6212C182.885 26.6212 183.578 26.407 184.198 25.9843C184.846 25.5616 185.308 24.9755 185.567 24.254L193.689 2.19989H188.769L182.141 20.2298Z" fill="white"/>
<path id="Vector_9" d="M201.162 2.20551H196.54V26.6212H201.162V2.20551Z" fill="white"/>
<path id="Vector_10" d="M217.005 6.83299C219.58 6.83299 221.513 8.15747 222.922 10.8741L223.041 11.0995L227.127 9.0029L227.009 8.77744C224.771 4.42072 221.401 2.21136 216.999 2.21136C213.505 2.21136 210.602 3.4006 208.37 5.74522C206.206 8.03913 205.112 10.9643 205.112 14.4305C205.112 17.8854 206.211 20.7993 208.37 23.0988C210.591 25.4435 213.493 26.6327 216.999 26.6327C221.401 26.6327 224.765 24.4177 227.009 20.0497L227.127 19.8242L223.041 17.722L222.922 17.9474C221.513 20.6753 219.58 22.0054 217.005 22.0054C214.806 22.0054 213.02 21.2727 211.69 19.8242C210.399 18.4265 209.74 16.6117 209.74 14.4305C209.74 12.238 210.393 10.4176 211.69 9.01981C213.02 7.56569 214.806 6.83299 217.005 6.83299Z" fill="white"/>
<path id="Vector_11" d="M245 6.83293V2.2113H234.088C233.107 2.2113 232.256 2.56639 231.563 3.25963C230.853 3.96978 230.498 4.82083 230.498 5.80151V26.627H245V22.0054H235.12V16.7356H242.356V12.114H235.12V6.83855H245V6.83293Z" fill="white"/>
</g>
</g>
<g id="Group_5">
<path id="Vector_12" d="M58.3876 36.6929H59.5656V37.8709C60.0221 37.0875 60.9803 36.5802 62.0399 36.5802C64.3338 36.5802 65.6019 38.1865 65.6019 40.2719C65.6019 42.3572 64.3056 43.9635 62.0117 43.9635C60.969 43.9635 60.0109 43.4675 59.5712 42.701V46.7478H58.3933V36.6929H58.3876ZM64.3788 40.2662C64.3788 38.6487 63.4094 37.6003 61.9215 37.6003C60.4336 37.6003 59.4642 38.6487 59.4642 40.2662C59.4642 41.8838 60.4336 42.9377 61.9215 42.9377C63.4094 42.9377 64.3788 41.8894 64.3788 40.2662Z" fill="white"/>
<path id="Vector_13" d="M73.1592 37.7016C71.66 37.7016 71.2316 39.0092 71.2316 40.6944V43.845H70.0537V36.6927H71.2316V38.1412C71.5416 37.1606 72.1616 36.6927 73.2494 36.6927H74.1906V37.7016H73.1592Z" fill="white"/>
<path id="Vector_14" d="M77.6241 40.2661C77.6241 38.1074 79.1965 36.5744 81.389 36.5744C83.5983 36.5744 85.1708 38.1074 85.1708 40.2661C85.1708 42.4078 83.5983 43.9577 81.389 43.9577C79.1965 43.9577 77.6241 42.4134 77.6241 40.2661ZM83.9647 40.2661C83.9647 38.7049 82.922 37.6002 81.389 37.6002C79.8729 37.6002 78.8302 38.7049 78.8302 40.2661C78.8302 41.8273 79.8729 42.9376 81.389 42.9376C82.922 42.9376 83.9647 41.8329 83.9647 40.2661Z" fill="white"/>
<path id="Vector_15" d="M88.5968 36.6928H89.8199L91.9222 42.4304L94.0244 36.6928H95.2587L92.5365 43.8451H91.3135L88.5968 36.6928Z" fill="white"/>
<path id="Vector_16" d="M100.636 33.7508V35.3402H99.2832V33.7508H100.636ZM99.3734 36.6928H100.551V43.8451H99.3734V36.6928Z" fill="white"/>
<path id="Vector_17" d="M105.01 40.2662C105.01 38.1808 106.278 36.5745 108.589 36.5745C109.631 36.5745 110.606 37.0874 111.046 37.8539V33.7508H112.224V43.8451H111.046V42.6671C110.606 43.4449 109.631 43.9578 108.589 43.9578C106.272 43.9578 105.01 42.3572 105.01 40.2662ZM111.142 40.2662C111.142 38.6486 110.172 37.6003 108.684 37.6003C107.196 37.6003 106.21 38.6486 106.21 40.2662C106.21 41.8837 107.196 42.9377 108.684 42.9377C110.172 42.9377 111.142 41.8894 111.142 40.2662Z" fill="white"/>
<path id="Vector_18" d="M123.8 41.5456C123.552 43.0054 122.239 43.9579 120.402 43.9579C118.209 43.9579 116.738 42.267 116.738 40.2268C116.738 38.1245 118.091 36.5802 120.272 36.5802C122.436 36.5802 123.733 38.0287 123.733 39.9281C123.733 40.0859 123.716 40.3226 123.704 40.424H117.905C117.995 41.9007 119.01 42.949 120.407 42.949C121.613 42.949 122.38 42.4361 122.617 41.5456H123.8ZM117.956 39.5166H122.515C122.425 38.3105 121.585 37.544 120.261 37.544C119.015 37.544 118.175 38.2541 117.956 39.5166Z" fill="white"/>
<path id="Vector_19" d="M135.941 42.6671V43.8451H134.763V33.7508H135.941V37.8539C136.397 37.0874 137.355 36.5745 138.398 36.5745C140.709 36.5745 141.977 38.1808 141.977 40.2662C141.977 42.3515 140.709 43.9578 138.398 43.9578C137.367 43.9578 136.397 43.4506 135.941 42.6671ZM140.765 40.2662C140.765 38.6486 139.796 37.6003 138.291 37.6003C136.803 37.6003 135.834 38.6486 135.834 40.2662C135.834 41.8837 136.803 42.9377 138.291 42.9377C139.796 42.9377 140.765 41.8894 140.765 40.2662Z" fill="white"/>
<path id="Vector_20" d="M153.069 41.5456C152.821 43.0054 151.508 43.9579 149.67 43.9579C147.478 43.9579 146.007 42.267 146.007 40.2268C146.007 38.1245 147.359 36.5802 149.541 36.5802C151.705 36.5802 153.001 38.0287 153.001 39.9281C153.001 40.0859 152.984 40.3226 152.973 40.424H147.173C147.264 41.9007 148.278 42.949 149.676 42.949C150.882 42.949 151.649 42.4361 151.885 41.5456H153.069ZM147.224 39.5166H151.784C151.694 38.3105 150.854 37.544 149.529 37.544C148.284 37.544 147.45 38.2541 147.224 39.5166Z" fill="white"/>
<path id="Vector_21" d="M157.071 41.5456H158.204C158.306 42.4699 158.954 42.9659 160.03 42.9659C160.955 42.9659 161.575 42.4699 161.575 41.8894C161.575 39.759 157.263 41.6752 157.263 38.581C157.263 37.3749 158.322 36.5802 159.884 36.5802C161.518 36.5802 162.623 37.4482 162.707 38.767H161.558C161.456 37.8596 160.526 37.544 159.85 37.544C158.982 37.544 158.407 37.9441 158.407 38.5641C158.407 40.4917 162.747 38.5754 162.747 41.8556C162.747 43.135 161.659 43.9579 160.025 43.9579C158.311 43.9579 157.19 43.0392 157.071 41.5456Z" fill="white"/>
<path id="Vector_22" d="M169.199 34.4044V36.6927H171.481V37.7016H169.199V41.5792C169.199 42.3739 169.672 42.8417 170.388 42.8417H171.476V43.8506H170.343C168.928 43.8506 168.021 42.9995 168.021 41.6074V37.7016H166.477V36.6927H168.021V34.4044H169.199Z" fill="white"/>
<path id="Vector_23" d="M181.763 41.5456H182.896C182.997 42.4699 183.645 42.9659 184.722 42.9659C185.646 42.9659 186.266 42.4699 186.266 41.8894C186.266 39.759 181.954 41.6752 181.954 38.581C181.954 37.3749 183.014 36.5802 184.575 36.5802C186.21 36.5802 187.314 37.4482 187.399 38.767H186.249C186.148 37.8596 185.218 37.544 184.541 37.544C183.673 37.544 183.098 37.9441 183.098 38.5641C183.098 40.4917 187.438 38.5754 187.438 41.8556C187.438 43.135 186.35 43.9579 184.716 43.9579C183.003 43.9579 181.881 43.0392 181.763 41.5456Z" fill="white"/>
<path id="Vector_24" d="M198.585 41.5456C198.337 43.0054 197.024 43.9579 195.187 43.9579C192.994 43.9579 191.523 42.267 191.523 40.2268C191.523 38.1245 192.876 36.5802 195.057 36.5802C197.222 36.5802 198.518 38.0287 198.518 39.9281C198.518 40.0859 198.501 40.3226 198.49 40.424H192.69C192.78 41.9007 193.795 42.949 195.193 42.949C196.399 42.949 197.165 42.4361 197.402 41.5456H198.585ZM192.741 39.5166H197.3C197.21 38.3105 196.37 37.544 195.046 37.544C193.8 37.544 192.961 38.2541 192.741 39.5166Z" fill="white"/>
<path id="Vector_25" d="M206.15 37.7017C204.651 37.7017 204.223 39.0093 204.223 40.6945V43.8451H203.045V36.6928H204.223V38.1413C204.533 37.1606 205.153 36.6928 206.24 36.6928H207.182V37.7017H206.15Z" fill="white"/>
<path id="Vector_26" d="M210.592 36.6927H211.815L213.917 42.4303L216.019 36.6927H217.254L214.531 43.845H213.308L210.592 36.6927Z" fill="white"/>
<path id="Vector_27" d="M222.63 33.7509V35.3402H221.277V33.7509H222.63ZM221.367 36.6929H222.545V43.8452H221.367V36.6929Z" fill="white"/>
<path id="Vector_28" d="M227.003 40.266C227.003 38.3497 228.271 36.5743 230.61 36.5743C232.273 36.5743 233.761 37.5099 233.98 39.0993H232.819C232.673 38.2314 231.743 37.5945 230.627 37.5945C229.009 37.5945 228.226 38.8006 228.226 40.2604C228.226 41.7201 229.021 42.9319 230.627 42.9319C231.743 42.9319 232.554 42.3908 232.819 41.5285H233.969C233.721 42.9883 232.498 43.9577 230.616 43.9577C228.265 43.9577 227.003 42.1879 227.003 40.266Z" fill="white"/>
<path id="Vector_29" d="M245 41.5456C244.752 43.0054 243.438 43.9579 241.601 43.9579C239.408 43.9579 237.937 42.267 237.937 40.2268C237.937 38.1245 239.29 36.5802 241.471 36.5802C243.636 36.5802 244.932 38.0287 244.932 39.9281C244.932 40.0859 244.915 40.3226 244.904 40.424H239.104C239.194 41.9007 240.209 42.949 241.607 42.949C242.813 42.949 243.579 42.4361 243.816 41.5456H245ZM239.155 39.5166H243.714C243.624 38.3105 242.785 37.544 241.46 37.544C240.214 37.544 239.375 38.2541 239.155 39.5166Z" fill="white"/>
</g>
</g>
</g>
</svg>
