<svg width="22" height="22" viewBox="0 0 22 22" fill="none" xmlns="http://www.w3.org/2000/svg">
<g id="Frame 1087">
<path id="Vector" fill-rule="evenodd" clip-rule="evenodd" d="M6.1196e-07 11C6.35141e-07 10.7348 0.108433 10.4805 0.301449 10.293C0.494464 10.1055 0.756247 10.0002 1.02921 10.0002L18.4844 10.0002L14.065 5.70895C13.9693 5.61599 13.8934 5.50564 13.8416 5.38418C13.7898 5.26272 13.7632 5.13254 13.7632 5.00108C13.7632 4.86962 13.7898 4.73944 13.8416 4.61798C13.8934 4.49653 13.9693 4.38617 14.065 4.29321C14.1607 4.20025 14.2743 4.12651 14.3993 4.0762C14.5243 4.02589 14.6584 4 14.7937 4C14.929 4 15.063 4.02589 15.188 4.0762C15.3131 4.12651 15.4267 4.20025 15.5224 4.29321L21.6976 10.2921C21.7935 10.385 21.8695 10.4953 21.9214 10.6168C21.9733 10.7383 22 10.8685 22 11C22 11.1315 21.9733 11.2617 21.9214 11.3832C21.8695 11.5047 21.7935 11.615 21.6976 11.7079L15.5224 17.7068C15.3291 17.8945 15.067 18 14.7937 18C14.5204 18 14.2583 17.8945 14.065 17.7068C13.8717 17.519 13.7632 17.2644 13.7632 16.9989C13.7632 16.7334 13.8717 16.4788 14.065 16.291L18.4844 11.9998L1.02921 11.9998C0.756247 11.9998 0.494464 11.8945 0.301449 11.707C0.108433 11.5195 5.88778e-07 11.2652 6.1196e-07 11Z" fill="white"/>
</g>
</svg>
