<svg width="14" height="14" viewBox="0 0 14 14" fill="none" xmlns="http://www.w3.org/2000/svg">
<path id="Vector" d="M13.5475 4.92979L9.35056 4.29106L7.47443 0.308118C7.42318 0.199067 7.33888 0.110788 7.23474 0.0571282C6.97357 -0.0778869 6.6562 0.0346257 6.52561 0.308118L4.64948 4.29106L0.452561 4.92979C0.336852 4.9471 0.231061 5.00422 0.150065 5.09077C0.0521451 5.19616 -0.00181317 5.33795 4.65247e-05 5.48498C0.00190622 5.63201 0.0594317 5.77226 0.159983 5.8749L3.19651 8.97505L2.47912 13.3527C2.46229 13.4545 2.47305 13.5592 2.51018 13.655C2.5473 13.7507 2.60931 13.8337 2.68916 13.8944C2.76901 13.9551 2.86351 13.9912 2.96195 13.9986C3.06039 14.0059 3.15883 13.9842 3.2461 13.936L7.00002 11.8692L10.7539 13.936C10.8564 13.9931 10.9754 14.0122 11.0895 13.9914C11.3771 13.9395 11.5705 13.6538 11.5209 13.3527L10.8035 8.97505L13.8401 5.8749C13.9227 5.79008 13.9773 5.6793 13.9938 5.55813C14.0384 5.25521 13.8368 4.97479 13.5475 4.92979Z" fill="#1D3566"/>
</svg>
