<svg width="32" height="32" viewBox="0 0 32 32" fill="none" xmlns="http://www.w3.org/2000/svg">
<g id="Frame 1000008928">
<rect width="32" height="32" rx="2" fill="#F3F8FC"/>
<g id="Group 1000009495">
<path id="Vector" d="M25.6959 25.1277L20.7656 19.9295C22.0332 18.4018 22.7278 16.4797 22.7278 14.4787C22.7278 9.80364 18.9757 6 14.3639 6C9.75212 6 6 9.80364 6 14.4787C6 19.1538 9.75212 22.9575 14.3639 22.9575C16.0952 22.9575 17.7451 22.4281 19.1557 21.4232L24.1235 26.6609C24.3311 26.8795 24.6104 27 24.9097 27C25.193 27 25.4617 26.8905 25.6657 26.6914C26.0992 26.2686 26.113 25.5675 25.6959 25.1277ZM14.3639 8.21185C17.7727 8.21185 20.5459 11.0231 20.5459 14.4787C20.5459 17.9344 17.7727 20.7456 14.3639 20.7456C10.9551 20.7456 8.18189 17.9344 8.18189 14.4787C8.18189 11.0231 10.9551 8.21185 14.3639 8.21185Z" fill="#565656"/>
</g>
</g>
</svg>
