<svg width="33" height="32" viewBox="0 0 33 32" fill="none" xmlns="http://www.w3.org/2000/svg">
<path d="M5.18995 19.4519C5.40393 19.5951 5.6459 19.6635 5.88531 19.6635C6.28922 19.6635 6.68581 19.4684 6.92734 19.1075C8.95111 16.0833 12.3342 14.2779 15.977 14.2779C19.609 14.2779 22.9865 16.0751 25.0117 19.0854C25.3979 19.6593 26.1761 19.8116 26.7499 19.4254C27.3239 19.0393 27.4761 18.261 27.09 17.6872C25.4719 15.2821 23.152 13.5074 20.5009 12.5581C22.0908 11.2594 23.1076 9.28445 23.1076 7.07632C23.1076 3.17439 19.9332 0 16.0313 0C12.1294 0 8.95499 3.17439 8.95499 7.07632C8.95499 9.2686 9.95707 11.2311 11.5273 12.5302C8.83476 13.476 6.47997 15.2721 4.84559 17.7144C4.4609 18.2893 4.61508 19.0672 5.18995 19.4519ZM16.0313 2.50489C18.552 2.50489 20.6027 4.55565 20.6027 7.07632C20.6027 9.59699 18.552 11.6477 16.0313 11.6477C13.5106 11.6477 11.4599 9.59699 11.4599 7.07632C11.4599 4.55565 13.5106 2.50489 16.0313 2.50489ZM21.0259 22.1764L19.1588 23.5234C18.881 23.7238 18.7647 24.079 18.8709 24.4033L19.6228 26.5827C19.6545 26.6797 19.6667 26.7745 19.6627 26.865C19.636 27.4503 18.9024 27.8507 18.3644 27.4626L16.4973 26.1153C16.3584 26.0151 16.1949 25.965 16.0314 25.965C15.8679 25.965 15.7044 26.0151 15.5655 26.1153L13.6984 27.4626C13.1603 27.8507 12.4232 27.4503 12.3999 26.865C12.3963 26.7745 12.4089 26.6797 12.4406 26.5827L13.1918 24.4033C13.298 24.079 13.1817 23.7238 12.9039 23.5234L11.0367 22.1764C10.4155 21.7283 10.7348 20.6654 11.5027 20.6654H13.8105C14.154 20.6654 14.4583 20.5332 14.5644 20.2089L15.2775 18.0154C15.3962 17.6529 15.7138 17.4716 16.0314 17.4716C16.349 17.4716 16.6666 17.6529 16.7852 18.0154L17.4984 20.2089C17.6045 20.5332 17.9088 20.6654 18.2522 20.6654H20.5601C21.3279 20.6654 21.6472 21.7283 21.0259 22.1764ZM31.7344 26.56L29.8672 27.9069C29.5894 28.1073 29.4731 28.4626 29.5793 28.7868L30.3312 30.9662C30.3629 31.0633 30.3751 31.1581 30.3711 31.2485C30.3445 31.8339 29.6108 32.2343 29.0728 31.8461L27.2057 30.4988C27.0668 30.3986 26.9033 30.3485 26.7398 30.3485C26.5763 30.3485 26.4128 30.3986 26.2739 30.4988L24.4068 31.8461C23.8687 32.2343 23.1316 31.8339 23.1083 31.2485C23.1047 31.1581 23.1173 31.0632 23.149 30.9662L23.9002 28.7868C24.0064 28.4626 23.8901 28.1073 23.6123 27.9069L21.7452 26.56C21.1239 26.1119 21.4432 25.0489 22.2111 25.0489H24.5189C24.8624 25.0489 25.1667 24.9167 25.2728 24.5925L25.9859 22.399C26.1046 22.0365 26.4222 21.8552 26.7398 21.8552C27.0574 21.8552 27.375 22.0365 27.4936 22.399L28.2068 24.5925C28.3129 24.9167 28.6172 25.0489 28.9606 25.0489H31.2685C32.0363 25.0489 32.3556 26.1119 31.7344 26.56ZM10.3175 26.56L8.45038 27.9069C8.17259 28.1073 8.0563 28.4626 8.16244 28.7868L8.91435 30.9662C8.9461 31.0633 8.95831 31.1581 8.95424 31.2485C8.92762 31.8339 8.194 32.2343 7.65595 31.8461L5.78881 30.4988C5.64991 30.3986 5.4864 30.3485 5.3229 30.3485C5.15939 30.3485 4.99588 30.3986 4.85699 30.4988L2.9899 31.8461C2.45185 32.2343 1.71472 31.8339 1.69143 31.2485C1.68786 31.1581 1.70038 31.0632 1.73213 30.9662L2.48335 28.7868C2.58949 28.4626 2.47321 28.1073 2.19541 27.9069L0.328266 26.56C-0.292947 26.1119 0.0263013 25.0489 0.794176 25.0489H3.10206C3.44548 25.0489 3.74982 24.9167 3.85591 24.5925L4.56905 22.399C4.68772 22.0365 5.00528 21.8552 5.3229 21.8552C5.64052 21.8552 5.95807 22.0365 6.07674 22.399L6.78989 24.5925C6.89603 24.9167 7.20031 25.0489 7.54373 25.0489H9.85162C10.6195 25.0489 10.9387 26.1119 10.3175 26.56Z" fill="#1D3566"/>
</svg>
