<svg width="32" height="32" viewBox="0 0 32 32" fill="none" xmlns="http://www.w3.org/2000/svg">
<g id="2962084 1">
<g id="Group">
<path id="Vector" d="M21.5322 2.03055C20.2272 2.18125 18.3803 3.33234 17.4633 4.56359C16.9343 5.26899 16.6232 5.94233 16.3539 6.95554L16.2192 7.46215L16.2257 8.00082C16.2321 8.29581 16.2481 8.57156 16.2641 8.61645C16.3058 8.72226 16.386 8.73829 16.9503 8.7415C17.4184 8.7447 17.4473 8.7415 17.8481 8.62286C18.919 8.31184 19.7046 7.84371 20.2625 7.17999C20.3972 7.01647 20.5992 6.79843 20.705 6.68942C21.0577 6.34313 21.5098 5.5736 21.7599 4.90667C22.01 4.23654 22.1222 3.6145 22.1542 2.72954L22.1735 2.16201L22.0901 2.07864C21.9971 1.98566 21.9458 1.98245 21.5322 2.03055Z" fill="black"/>
<path id="Vector_2" d="M21.234 8.65822C20.5991 8.69029 18.8901 9.16483 17.6621 9.64579C16.9182 9.93757 16.9182 9.93757 16.7707 9.96322C16.5142 10.0049 15.8857 9.82214 14.8052 9.38607C14.2312 9.15842 13.6413 8.98527 12.7691 8.78648C12.4036 8.70632 11.7976 8.6967 11.5347 8.77044C11.4289 8.7993 11.0954 8.86664 10.794 8.91794C10.1463 9.03337 9.78077 9.14559 9.2934 9.38607C7.82168 10.1043 6.81808 11.1368 6.0229 12.7528C5.67019 13.4646 5.41048 14.1604 5.2181 14.901C4.93273 16.0008 4.92631 18.1106 5.20527 19.39C5.23733 19.5471 5.26619 19.7331 5.26619 19.8068C5.26619 19.9607 5.29505 20.0761 5.56438 21.1374C5.81448 22.1186 5.78883 22.0384 6.26658 23.2376C6.93671 24.921 7.14834 25.2929 8.51746 27.1815C9.07858 27.9542 9.36394 28.3069 9.77757 28.7269C10.2104 29.1694 10.5599 29.4259 11.0537 29.6696C11.6116 29.9422 11.8553 30.0031 12.3683 29.9999C13.0256 29.9999 13.5547 29.8652 14.5615 29.442C15.1963 29.1758 15.238 29.163 16.3923 28.9257C16.7386 28.852 17.0593 28.8584 17.5466 28.9386C17.7134 28.9642 17.9635 29.0027 18.0981 29.0219C18.3707 29.0604 18.6464 29.1502 19.3582 29.4356C20.2175 29.7818 20.8235 29.9358 21.4584 29.9742C22.3818 30.0319 23.2732 29.6215 24.2255 28.7077C25.197 27.7682 26.1044 26.4825 27.0215 24.7478C27.2684 24.2797 27.6628 23.321 27.7301 23.0324C27.7589 22.917 27.807 22.7727 27.8423 22.715C27.8744 22.6573 27.9032 22.5771 27.9032 22.5418C27.9032 22.4264 27.6692 22.2437 27.2555 22.0352C26.4764 21.6344 25.7101 20.9483 25.1938 20.1755C24.8251 19.6208 24.4532 18.7904 24.3602 18.2998C24.2031 17.4918 24.1582 16.6068 24.248 15.9912C24.2704 15.8309 24.3506 15.4942 24.4275 15.2377C24.7578 14.1251 24.9854 13.6794 25.5016 13.1279C25.6588 12.9644 25.787 12.8137 25.787 12.8009C25.787 12.7464 26.5726 12.089 26.765 11.9832C26.8708 11.9223 27.0054 11.8293 27.0632 11.7716C27.2395 11.5985 27.2139 11.5311 26.7714 11.0117C26.1782 10.3159 25.4311 9.74518 24.5526 9.31874C24.0043 9.05261 23.6259 8.92114 23.0969 8.81213C22.555 8.6967 21.747 8.62936 21.234 8.65822Z" fill="black"/>
</g>
</g>
</svg>
