<svg width="70" height="70" viewBox="0 0 70 70" fill="none" xmlns="http://www.w3.org/2000/svg">
<g id="Group 1000010887">
<path id="Vector" d="M47.5844 0.0813229C54.9788 0.85113 63.6374 1.69139 67.9433 7.72905C72.2456 13.7617 68.387 21.98 68.4792 29.3796C68.573 36.9039 71.8481 44.6626 68.4876 51.4017C64.8885 58.6193 57.6203 63.2977 50.093 66.2508C42.2099 69.3435 33.1172 71.7606 25.3843 68.312C17.8574 64.9552 15.603 55.8099 11.1609 48.8883C7.05874 42.4963 1.35638 36.9586 0.42978 29.4284C-0.566993 21.3279 -0.238293 11.5744 5.90507 6.17517C12.0226 0.798629 21.5836 4.92314 29.6552 3.74301C35.8426 2.83835 41.3645 -0.566208 47.5844 0.0813229Z" fill="#F0F9FF"/>
<g id="Group 1000010886">
<path id="Vector_2" d="M11 33.88V31.7969L27.3347 45.9635L11.2133 58.4946C11.0728 58.1779 11.0002 57.8357 11 57.4897V33.8922V33.88ZM11.0615 27.6917C11.4102 26.3369 13.3464 25.4662 14.4212 24.7095V18.8955C14.4212 18.2481 14.6805 17.6272 15.1421 17.1694C15.6037 16.7116 16.2297 16.4544 16.8825 16.4544H26.1L34.899 10.2377C35.1242 10.0816 35.3927 9.99856 35.6674 10C35.9422 10.0015 36.2097 10.0873 36.4332 10.2458L45.0805 16.4544H54.1052C54.758 16.4544 55.384 16.7116 55.8456 17.1694C56.3072 17.6272 56.5665 18.2481 56.5665 18.8955V24.6932C57.7233 25.5069 59.9877 26.6136 59.9877 28.1474V28.2084L54.1175 33.1273V18.8874H16.8825V32.7204L11.0615 27.6917ZM60 32.2932V57.4897C60.001 58.074 59.7948 58.64 59.4175 59.0886L43.1361 46.3907L60 32.2932ZM55.4876 60H14.3884L29.7509 48.0588L34.3247 52.0257C34.6184 52.2812 34.9976 52.4189 35.3882 52.4122C35.7788 52.4054 36.1528 52.2546 36.4373 51.989L40.6707 48.4535L55.4753 60H55.4876Z" fill="#1476BF"/>
<g id="Group">
<path id="Vector_3" d="M40.3805 21.3979H30.3701C29.412 21.3979 28.6387 22.1684 28.6387 23.1169V43.2783C28.6387 44.2259 29.412 44.9955 30.3701 44.9955H40.3805C41.3368 44.9955 42.1119 44.2259 42.1119 43.2783V23.1169C42.1119 22.1684 41.3368 21.3979 40.3805 21.3979ZM32.9052 22.4419H37.8471C37.972 22.4419 38.0734 22.6268 38.0734 22.8555C38.0734 23.0842 37.972 23.27 37.8471 23.27H32.9052C32.7795 23.27 32.6798 23.0842 32.6798 22.8555C32.6798 22.6268 32.7795 22.4419 32.9052 22.4419ZM35.3762 43.2989C34.7667 43.2989 34.2707 42.807 34.2707 42.2017C34.2707 41.5963 34.7667 41.1061 35.3762 41.1061C35.9839 41.1061 36.4799 41.5963 36.4799 42.2017C36.4799 42.807 35.9839 43.2989 35.3762 43.2989ZM40.8149 39.542H29.9366V24.2984H40.8149V39.542Z" fill="#1476BF"/>
</g>
</g>
</g>
</svg>
