<svg width="60" height="60" viewBox="0 0 60 60" fill="none" xmlns="http://www.w3.org/2000/svg">
<rect width="60" height="60" rx="4" fill="#1476BF"/>
<g clip-path="url(#clip0_2129_96996)">
<path d="M30.142 13.2072C27.4323 13.2072 24.761 13.8601 22.3669 15.1008L19.5677 12.3015C19.3201 12.0537 18.9634 11.9491 18.6212 12.0236C18.2791 12.0981 17.9982 12.3415 17.8759 12.6697L16.4624 16.4625L12.6697 17.8759C12.3415 17.9982 12.098 18.2791 12.0235 18.6213C11.9491 18.9634 12.0537 19.3201 12.3014 19.5677L15.1007 22.3671C13.86 24.761 13.2071 27.4323 13.2071 30.1421C13.2071 39.48 20.804 47.077 30.142 47.077C39.4799 47.077 47.0769 39.48 47.0769 30.1421C47.0769 20.8041 39.4799 13.2072 30.142 13.2072ZM30.142 35.7156C33.2153 35.7156 35.7156 33.2154 35.7156 30.1421C35.7156 27.0688 33.2153 24.5686 30.142 24.5686C28.9763 24.5686 27.8936 24.9288 26.9981 25.543L24.4108 22.9557C25.9838 21.6987 27.9765 20.9458 30.142 20.9458C35.2128 20.9458 39.3383 25.0712 39.3383 30.1421C39.3383 35.2129 35.2128 39.3383 30.142 39.3383C25.0712 39.3383 20.9458 35.2129 20.9458 30.1421C20.9458 27.9766 21.6986 25.9839 22.9556 24.4108L25.5429 26.9982C24.9287 27.8937 24.5685 28.9764 24.5685 30.1421C24.5685 33.2153 27.0688 35.7156 30.142 35.7156ZM30.8696 29.4144L28.4933 27.0382C28.9854 26.7758 29.5465 26.6264 30.142 26.6264C32.0805 26.6264 33.6576 28.2035 33.6576 30.142C33.6576 32.0805 32.0805 33.6575 30.142 33.6575C28.2035 33.6575 26.6264 32.0805 26.6264 30.142C26.6264 29.5465 26.7758 28.9855 27.0382 28.4934L29.4144 30.8696C29.6153 31.0705 29.8787 31.171 30.142 31.171C30.4053 31.171 30.6687 31.0705 30.8695 30.8696C31.2715 30.4678 31.2715 29.8163 30.8696 29.4144ZM19.245 14.8891L22.7076 18.3518L22.2624 20.8073L18.4574 17.0023L19.245 14.8891ZM14.8891 19.245L17.0023 18.4575L20.8073 22.2625L18.3518 22.7077L14.8891 19.245ZM30.142 45.019C21.9389 45.019 15.2651 38.3452 15.2651 30.1421C15.2651 27.9826 15.7372 25.8514 16.6385 23.9048L17.2775 24.5438C17.4722 24.7385 17.7347 24.8452 18.0051 24.8452C18.0661 24.8452 18.1275 24.8398 18.1886 24.8288L20.4562 24.4177C19.4605 26.096 18.8879 28.0532 18.8879 30.1421C18.8879 36.3476 23.9365 41.3963 30.142 41.3963C36.3476 41.3963 41.3963 36.3476 41.3963 30.1421C41.3963 23.9365 36.3476 18.8878 30.142 18.8878C28.0532 18.8878 26.096 19.4606 24.4177 20.4562L24.8287 18.1887C24.8889 17.8567 24.7824 17.5161 24.5438 17.2775L23.9048 16.6385C25.8514 15.7372 27.9826 15.2651 30.1421 15.2651C38.3453 15.2651 45.0191 21.9389 45.0191 30.142C45.019 38.3452 38.3451 45.019 30.142 45.019Z" fill="white"/>
</g>
<defs>
<clipPath id="clip0_2129_96996">
<rect width="35.0769" height="35.0769" fill="white" transform="translate(12 12)"/>
</clipPath>
</defs>
</svg>
