<svg width="70" height="70" viewBox="0 0 70 70" fill="none" xmlns="http://www.w3.org/2000/svg">
<g id="ac repair">
<g id="Group 21">
<path id="Vector" d="M57.45 10H11.55C10.8743 10.002 10.2269 10.2705 9.74911 10.7469C9.27133 11.2232 9.00202 11.8687 9 12.5424V34.5763C9.00202 35.2499 9.27133 35.8954 9.74911 36.3718C10.2269 36.8481 10.8743 37.1166 11.55 37.1186H19.2V57.4576C19.202 58.1313 19.4713 58.7768 19.9491 59.2531C20.4269 59.7295 21.0743 59.998 21.75 60H47.25C47.9257 59.998 48.5731 59.7295 49.0509 59.2531C49.5287 58.7768 49.798 58.1313 49.8 57.4576V37.1186H57.45C58.1257 37.1166 58.7731 36.8481 59.2509 36.3718C59.7287 35.8954 59.998 35.2499 60 34.5763V12.5424C59.998 11.8687 59.7287 11.2232 59.2509 10.7469C58.7731 10.2705 58.1257 10.002 57.45 10ZM19.2 35.4237H14.1V33.7288H19.2V35.4237ZM48.1 57.4576C48.1 57.6824 48.0104 57.8979 47.851 58.0569C47.6916 58.2158 47.4754 58.3051 47.25 58.3051H21.75C21.5246 58.3051 21.3084 58.2158 21.149 58.0569C20.9896 57.8979 20.9 57.6824 20.9 57.4576V33.7288C20.9013 33.5833 20.9393 33.4405 21.0105 33.3136V33.3051C21.0864 33.1767 21.1945 33.0701 21.3241 32.9958C21.4537 32.9216 21.6005 32.8821 21.75 32.8814H47.25C47.4006 32.8816 47.5485 32.9218 47.6784 32.9977C47.8083 33.0737 47.9157 33.1827 47.9895 33.3136C48.0607 33.4405 48.0987 33.5833 48.1 33.7288V57.4576ZM54.9 35.4237H49.8V33.7288H54.9V35.4237ZM54.9 32.0339H49.1285C48.8938 31.7676 48.6049 31.5543 48.2809 31.4082C47.957 31.262 47.6055 31.1864 47.25 31.1864H21.75C21.3943 31.1856 21.0426 31.2608 20.7185 31.4069C20.3945 31.5531 20.1056 31.7669 19.8715 32.0339H14.1V30.339C14.1 30.1142 14.1896 29.8987 14.349 29.7397C14.5084 29.5808 14.7246 29.4915 14.95 29.4915H54.05C54.2754 29.4915 54.4916 29.5808 54.651 29.7397C54.8104 29.8987 54.9 30.1142 54.9 30.339V32.0339ZM58.3 34.5763C58.3 34.801 58.2104 35.0166 58.051 35.1755C57.8916 35.3344 57.6754 35.4237 57.45 35.4237H56.6V30.339C56.598 29.6653 56.3287 29.0198 55.8509 28.5435C55.3731 28.0671 54.7257 27.7986 54.05 27.7966H14.95C14.2743 27.7986 13.6269 28.0671 13.1491 28.5435C12.6713 29.0198 12.402 29.6653 12.4 30.339V35.4237H11.55C11.3246 35.4237 11.1084 35.3344 10.949 35.1755C10.7896 35.0166 10.7 34.801 10.7 34.5763V12.5424C10.7 12.3176 10.7896 12.1021 10.949 11.9431C11.1084 11.7842 11.3246 11.6949 11.55 11.6949H57.45C57.6754 11.6949 57.8916 11.7842 58.051 11.9431C58.2104 12.1021 58.3 12.3176 58.3 12.5424V34.5763Z" fill="#565656"/>
<path id="Vector_2" d="M29.4004 13.3896H14.9504C14.2741 13.3896 13.6255 13.6575 13.1473 14.1343C12.6691 14.6111 12.4004 15.2577 12.4004 15.932C12.4004 16.6063 12.6691 17.253 13.1473 17.7298C13.6255 18.2065 14.2741 18.4744 14.9504 18.4744H29.4004C30.0767 18.4744 30.7253 18.2065 31.2035 17.7298C31.6817 17.253 31.9504 16.6063 31.9504 15.932C31.9504 15.2577 31.6817 14.6111 31.2035 14.1343C30.7253 13.6575 30.0767 13.3896 29.4004 13.3896ZM29.4004 16.7795H14.9504C14.725 16.7795 14.5088 16.6902 14.3494 16.5313C14.1899 16.3723 14.1004 16.1568 14.1004 15.932C14.1004 15.7073 14.1899 15.4917 14.3494 15.3328C14.5088 15.1738 14.725 15.0846 14.9504 15.0846H29.4004C29.6258 15.0846 29.842 15.1738 30.0014 15.3328C30.1608 15.4917 30.2504 15.7073 30.2504 15.932C30.2504 16.1568 30.1608 16.3723 30.0014 16.5313C29.842 16.6902 29.6258 16.7795 29.4004 16.7795Z" fill="#565656"/>
<path id="Vector_3" d="M45.9618 38.4025C45.9617 37.7321 45.7622 37.0769 45.3886 36.5196C45.015 35.9622 44.4841 35.5279 43.8629 35.2714C43.2417 35.0149 42.5582 34.9477 41.8987 35.0785C41.2393 35.2092 40.6335 35.5319 40.1581 36.0059L35.0581 41.0906C34.9753 40.8404 34.9334 40.5786 34.934 40.3152C34.9479 39.5229 34.8012 38.736 34.5025 38.0018C34.2038 37.2675 33.7593 36.601 33.1957 36.0423C32.3231 35.1789 31.2042 34.6053 29.9922 34.4003C28.7801 34.1952 27.5341 34.3685 26.4246 34.8965C26.302 34.9552 26.1953 35.0423 26.1135 35.1506C26.0317 35.2589 25.9771 35.3852 25.9544 35.5189C25.9317 35.6525 25.9414 35.7897 25.9829 35.9188C26.0243 36.0479 26.0962 36.1653 26.1925 36.2609L29.2185 39.2711L28.9151 40.1694L28.0132 40.4703L24.9855 37.4516C24.8892 37.3564 24.7715 37.2853 24.6422 37.2441C24.5129 37.203 24.3757 37.1931 24.2418 37.2152C24.1077 37.238 23.9811 37.2925 23.8725 37.3742C23.7639 37.4559 23.6766 37.5624 23.6179 37.6847C23.162 38.6482 22.9718 39.7153 23.0668 40.7764C23.1618 41.8375 23.5386 42.8542 24.1585 43.722C24.7082 44.4807 25.431 45.0984 26.2671 45.5239C27.1033 45.9494 28.029 46.1707 28.9678 46.1694C29.5656 46.1532 30.1505 46.3443 30.6227 46.7101L28.9873 48.3415H28.1373C28.002 48.3414 27.8686 48.3737 27.7482 48.4354C27.6279 48.4972 27.5241 48.5867 27.4454 48.6965L24.4407 52.8906C24.3238 53.0538 24.2686 53.253 24.2851 53.4528C24.3016 53.6527 24.3887 53.8402 24.5308 53.9821L26.9346 56.3796C27.0768 56.5214 27.2649 56.6084 27.4653 56.625C27.6658 56.6416 27.8657 56.5868 28.0294 56.4703L32.2369 53.4737C32.3471 53.3953 32.4369 53.2918 32.4988 53.1718C32.5608 53.0518 32.5931 52.9188 32.593 52.7838V51.9364L34.2514 50.283L39.2018 55.2262C39.5166 55.5422 39.8911 55.7929 40.3037 55.9635C40.7164 56.1341 41.1589 56.2214 41.6056 56.2203C42.28 56.2221 42.9398 56.0242 43.5012 55.6517C44.0626 55.2791 44.5004 54.7487 44.759 54.1277C45.0177 53.5067 45.0854 52.8231 44.9538 52.1637C44.8221 51.5042 44.497 50.8986 44.0196 50.4237L39.6659 46.083L44.9682 40.7965C45.2843 40.4827 45.5348 40.1096 45.7054 39.6987C45.8759 39.2877 45.9631 38.8472 45.9618 38.4025ZM28.9958 44.4745H28.9746C28.3664 44.4762 27.7649 44.3469 27.2114 44.0955C26.6579 43.8442 26.1653 43.4766 25.7674 43.018C25.3694 42.5593 25.0755 42.0205 24.9056 41.4382C24.7358 40.8559 24.694 40.2439 24.7832 39.644L27.1862 42.0389C27.2979 42.1502 27.4385 42.2283 27.5923 42.2644C27.746 42.3004 27.9068 42.2931 28.0566 42.2432L29.8586 41.6415C29.9833 41.5999 30.0967 41.5301 30.1898 41.4374C30.2828 41.3448 30.3531 41.2319 30.3949 41.1076L30.9984 39.3101C31.0486 39.1606 31.0559 39 31.0196 38.8466C30.9832 38.6931 30.9047 38.5528 30.7927 38.4415L28.3906 36.0516C29.0432 35.9585 29.7086 36.0175 30.3344 36.2241C30.9602 36.4307 31.5294 36.7793 31.9972 37.2423C32.3989 37.6416 32.7156 38.1176 32.9284 38.6418C33.1412 39.1661 33.2457 39.7277 33.2356 40.2932C33.2302 41.0207 33.4148 41.7371 33.7711 42.372L33.5493 42.5932C33.3899 42.7521 33.3004 42.9676 33.3004 43.1923C33.3004 43.417 33.3899 43.6325 33.5493 43.7915L31.8255 45.5084C31.0374 44.8362 30.033 44.4692 28.9958 44.4745ZM31.1429 50.9864C30.9835 51.1453 30.8939 51.3608 30.8939 51.5855V52.3482L27.6282 54.6737L26.2418 53.2915L28.5742 50.0364H29.3393C29.5647 50.0363 29.7808 49.947 29.9402 49.7881L34.7486 44.994L35.9505 46.1923L31.1429 50.9864ZM42.8151 51.6245C43.1326 51.9431 43.3111 52.3736 43.3121 52.8226C43.3131 53.2716 43.1363 53.7029 42.8202 54.0228C42.4959 54.3336 42.0639 54.5077 41.614 54.5088C41.1642 54.5099 40.7312 54.338 40.4054 54.0287L35.4541 49.0847L37.1542 47.3898C37.3135 47.5486 37.5297 47.6379 37.7551 47.6379C37.9805 47.6379 38.1966 47.5486 38.356 47.3898L38.4614 47.2881L42.8151 51.6245ZM43.7646 39.6008L37.7534 45.5932L35.3496 43.1957L41.3599 37.2042C41.6837 36.8958 42.1141 36.7238 42.5618 36.7238C43.0096 36.7238 43.44 36.8958 43.7637 37.2042C44.0824 37.522 44.2615 37.953 44.2615 38.4025C44.2615 38.8519 44.0824 39.2829 43.7637 39.6008H43.7646Z" fill="#565656"/>
</g>
</g>
</svg>
