<svg width="24" height="24" viewBox="0 0 24 24" fill="none" xmlns="http://www.w3.org/2000/svg">
<rect width="24" height="24" rx="2" fill="white"/>
<path d="M18.6467 16.22C18.6467 16.46 18.5933 16.7067 18.48 16.9467C18.3667 17.1867 18.22 17.4134 18.0267 17.6267C17.7 17.9867 17.34 18.2467 16.9333 18.4134C16.5333 18.58 16.1 18.6667 15.6333 18.6667C14.9533 18.6667 14.2267 18.5067 13.46 18.18C12.6933 17.8534 11.9267 17.4134 11.1667 16.86C10.4 16.3 9.67334 15.68 8.98 14.9934C8.29334 14.3 7.67334 13.5734 7.12 12.8134C6.57334 12.0534 6.13334 11.2934 5.81334 10.54C5.49334 9.78004 5.33334 9.05337 5.33334 8.36004C5.33334 7.90671 5.41334 7.47337 5.57334 7.07337C5.73334 6.66671 5.98667 6.29337 6.34 5.96004C6.76667 5.54004 7.23334 5.33337 7.72667 5.33337C7.91334 5.33337 8.1 5.37337 8.26667 5.45337C8.44 5.53337 8.59334 5.65337 8.71334 5.82671L10.26 8.00671C10.38 8.17337 10.4667 8.32671 10.5267 8.47337C10.5867 8.61337 10.62 8.75337 10.62 8.88004C10.62 9.04004 10.5733 9.20004 10.48 9.35337C10.3933 9.50671 10.2667 9.66671 10.1067 9.82671L9.6 10.3534C9.52667 10.4267 9.49334 10.5134 9.49334 10.62C9.49334 10.6734 9.5 10.72 9.51334 10.7734C9.53334 10.8267 9.55334 10.8667 9.56667 10.9067C9.68667 11.1267 9.89334 11.4134 10.1867 11.76C10.4867 12.1067 10.8067 12.46 11.1533 12.8134C11.5133 13.1667 11.86 13.4934 12.2133 13.7934C12.56 14.0867 12.8467 14.2867 13.0733 14.4067C13.1067 14.42 13.1467 14.44 13.1933 14.46C13.2467 14.48 13.3 14.4867 13.36 14.4867C13.4733 14.4867 13.56 14.4467 13.6333 14.3734L14.14 13.8734C14.3067 13.7067 14.4667 13.58 14.62 13.5C14.7733 13.4067 14.9267 13.36 15.0933 13.36C15.22 13.36 15.3533 13.3867 15.5 13.4467C15.6467 13.5067 15.8 13.5934 15.9667 13.7067L18.1733 15.2734C18.3467 15.3934 18.4667 15.5334 18.54 15.7C18.6067 15.8667 18.6467 16.0334 18.6467 16.22Z" stroke="#1476BF" stroke-width="1.5" stroke-miterlimit="10"/>
<path d="M16.3333 9.99996C16.3333 9.59996 16.02 8.98663 15.5533 8.48663C15.1267 8.02663 14.56 7.66663 14 7.66663" stroke="#1476BF" stroke-width="1.5" stroke-linecap="round" stroke-linejoin="round"/>
<path d="M18.6667 10C18.6667 7.42004 16.58 5.33337 14 5.33337" stroke="#1476BF" stroke-width="1.5" stroke-linecap="round" stroke-linejoin="round"/>
</svg>
