<svg width="19" height="20" viewBox="0 0 19 20" fill="none" xmlns="http://www.w3.org/2000/svg">
<g id="Group 6977">
<g id="Basket">
<path id="Basket_2" fill-rule="evenodd" clip-rule="evenodd" d="M0.0961914 13.7469L0.851707 7.87507C1.33489 5.238 3.08311 4.35898 4.559 4.35898C4.78063 2.43528 6.10886 0.820316 7.95283 0.232477C9.79681 -0.355361 11.8139 0.193149 13.1069 1.63401C13.2952 1.83657 13.3612 2.12426 13.28 2.38873C13.1989 2.65319 12.9829 2.85424 12.7134 2.91614C12.4439 2.97804 12.1619 2.8914 11.9736 2.68884V2.60093C10.7312 1.21325 8.6 1.09522 7.21209 2.33723C6.62801 2.86621 6.24341 3.58001 6.12275 4.35898H14.3631C15.7775 4.35898 17.4906 5.238 18.0704 7.91902L18.2901 9.23755C18.3317 9.64194 18.0535 10.0096 17.6531 10.0791C17.2528 10.1485 16.8671 9.89608 16.7702 9.50126L16.5594 8.20909C16.2344 6.74113 15.4173 5.86211 14.3631 5.86211H4.559C3.45209 5.86211 2.63507 6.74113 2.37152 8.14756L1.62479 13.9579C1.39638 15.5401 1.62479 16.7004 2.19582 17.3949C2.76685 18.0893 3.86498 18.4233 5.45508 18.4233H13.4671C14.6373 18.5023 15.7872 18.088 16.6385 17.2806C17.3313 16.3219 17.5719 15.1086 17.2973 13.9579C17.2367 13.538 17.5278 13.1483 17.9474 13.0877C18.3671 13.027 18.7565 13.3182 18.8172 13.7381C19.2625 15.3284 18.8826 17.0362 17.8052 18.2874C16.7279 19.5386 15.096 20.1671 13.4583 19.9616H5.45508C3.38181 19.9616 1.94106 19.4518 1.06255 18.4057C0.184044 17.3597 -0.193716 15.7863 0.0961914 13.7469ZM6.99058 10.0277C6.88095 10.0696 6.76523 10.0934 6.64796 10.098C6.41624 10.0947 6.19521 9.99996 6.03301 9.83434C5.93885 9.75751 5.86621 9.65756 5.82217 9.54426C5.77299 9.43994 5.74892 9.32554 5.75189 9.21023C5.74282 9.15198 5.74282 9.09268 5.75189 9.03443C5.76003 8.97621 5.77785 8.91976 5.8046 8.86742C5.81841 8.81191 5.84555 8.76062 5.88366 8.71798C5.95124 8.62558 6.03103 8.54279 6.12086 8.47186C6.22158 8.41103 6.33129 8.36653 6.44591 8.34C6.55861 8.31375 6.67583 8.31375 6.78852 8.34C6.84639 8.34953 6.9026 8.36729 6.95544 8.39274C7.01142 8.41198 7.0646 8.43859 7.11357 8.47186L7.24535 8.58613C7.28976 8.62177 7.32576 8.6668 7.35077 8.71798L7.43862 8.86742V9.03443C7.44754 9.09269 7.44754 9.15197 7.43862 9.21023C7.44467 9.32487 7.4236 9.43931 7.37712 9.54426C7.31114 9.74699 7.17376 9.91881 6.99058 10.0277ZM11.3563 9.22C11.3563 9.70547 11.7496 10.099 12.2348 10.099C12.4604 10.0912 12.6743 9.99675 12.8322 9.83531C12.9153 9.7525 12.981 9.65387 13.0255 9.54524C13.0675 9.43895 13.0884 9.32549 13.087 9.21121C13.096 9.15296 13.096 9.09366 13.087 9.0354C13.0788 8.97718 13.061 8.92073 13.0342 8.86839C13.0167 8.81439 12.9899 8.76383 12.9552 8.71896C12.9302 8.66777 12.8942 8.62275 12.8498 8.5871C12.8113 8.54561 12.7669 8.51006 12.718 8.48162C12.6731 8.44683 12.6226 8.42006 12.5686 8.40251C12.5163 8.37574 12.4599 8.35792 12.4017 8.34977C12.289 8.32351 12.1718 8.32351 12.0591 8.34977C12.0009 8.35792 11.9445 8.37574 11.8922 8.40251C11.8382 8.42006 11.7877 8.44683 11.7428 8.48162C11.6902 8.51199 11.6428 8.55056 11.6023 8.59589C11.5579 8.63154 11.5219 8.67656 11.4969 8.72775C11.4627 8.77454 11.4333 8.82459 11.409 8.87718L11.3563 9.0442C11.3515 9.1027 11.3515 9.1615 11.3563 9.22Z" fill="#787878"/>
</g>
</g>
</svg>
