<svg width="24" height="24" viewBox="0 0 24 24" fill="none" xmlns="http://www.w3.org/2000/svg">
<path d="M8.1509 14.6668H8.15177C8.1525 14.6668 8.15323 14.6667 8.15395 14.6667H18.2944C18.5441 14.6667 18.7636 14.5088 18.8322 14.2799L21.0694 6.8132C21.1176 6.65222 21.0838 6.47917 20.9782 6.34556C20.8725 6.21195 20.7071 6.13333 20.5316 6.13333H6.861L6.46118 4.41764C6.40423 4.17361 6.17731 4 5.91513 4H2.5593C2.25038 4 2 4.23875 2 4.53333C2 4.82792 2.25038 5.06667 2.5593 5.06667H5.46652C5.53731 5.37069 7.37981 13.2771 7.48585 13.7319C6.89144 13.9783 6.47444 14.5435 6.47444 15.2C6.47444 16.0822 7.22717 16.8 8.15235 16.8H18.2944C18.6033 16.8 18.8537 16.5613 18.8537 16.2667C18.8537 15.9721 18.6033 15.7333 18.2944 15.7333H8.15235C7.84401 15.7333 7.59305 15.494 7.59305 15.2C7.59305 14.9064 7.84313 14.6675 8.1509 14.6668ZM19.7901 7.2L17.8725 13.6H8.60096L7.10948 7.2H19.7901Z" fill="#565656"/>
<path d="M7.59277 18.3998C7.59277 19.282 8.3455 19.9998 9.27069 19.9998C10.1959 19.9998 10.9486 19.282 10.9486 18.3998C10.9486 17.5176 10.1959 16.7998 9.27069 16.7998C8.3455 16.7998 7.59277 17.5176 7.59277 18.3998ZM9.27069 17.8665C9.57903 17.8665 9.82999 18.1058 9.82999 18.3998C9.82999 18.6938 9.57903 18.9331 9.27069 18.9331C8.96234 18.9331 8.71138 18.6938 8.71138 18.3998C8.71138 18.1058 8.96234 17.8665 9.27069 17.8665Z" fill="#565656"/>
<path d="M15.498 18.3998C15.498 19.282 16.2508 19.9998 17.176 19.9998C18.1011 19.9998 18.8539 19.282 18.8539 18.3998C18.8539 17.5176 18.1011 16.7998 17.176 16.7998C16.2508 16.7998 15.498 17.5176 15.498 18.3998ZM17.176 17.8665C17.4843 17.8665 17.7353 18.1058 17.7353 18.3998C17.7353 18.6938 17.4843 18.9331 17.176 18.9331C16.8676 18.9331 16.6167 18.6938 16.6167 18.3998C16.6167 18.1058 16.8676 17.8665 17.176 17.8665Z" fill="#565656"/>
</svg>
