<svg width="19" height="20" viewBox="0 0 19 20" fill="none" xmlns="http://www.w3.org/2000/svg">
<g id="Home">
<g id="Home_2">
<mask id="path-1-inside-1_1725_105751" fill="white">
<path fill-rule="evenodd" clip-rule="evenodd" d="M6.65722 18.7714V15.7047C6.6572 14.9246 7.29312 14.2908 8.08101 14.2856H10.9671C11.7587 14.2856 12.4005 14.9209 12.4005 15.7047V18.7809C12.4003 19.4432 12.9343 19.9845 13.603 20H15.5271C17.4451 20 19 18.4607 19 16.5618V7.83784C18.9898 7.09083 18.6355 6.38935 18.038 5.93303L11.4577 0.685301C10.3049 -0.228434 8.6662 -0.228434 7.51342 0.685301L0.962025 5.94256C0.362259 6.39702 0.00738669 7.09967 0 7.84736V16.5618C0 18.4607 1.55488 20 3.47291 20H5.39696C6.08235 20 6.63797 19.4499 6.63797 18.7714"/>
</mask>
<path d="M5.15722 18.7714C5.15722 19.5998 5.82879 20.2714 6.65722 20.2714C7.48564 20.2714 8.15722 19.5998 8.15722 18.7714H5.15722ZM6.65722 15.7047H8.15722V15.7046L6.65722 15.7047ZM8.08101 14.2856V12.7856L8.07105 12.7856L8.08101 14.2856ZM12.4005 18.7809L13.9005 18.7813V18.7809H12.4005ZM13.603 20L13.5682 21.4996C13.5798 21.4999 13.5914 21.5 13.603 21.5V20ZM15.5271 20V18.5V20ZM19 7.83784H20.5C20.5 7.83098 20.5 7.82413 20.4999 7.81727L19 7.83784ZM18.038 5.93303L17.1027 7.10577C17.1109 7.11231 17.1192 7.11877 17.1276 7.12514L18.038 5.93303ZM11.4577 0.685301L12.393 -0.487438L12.3895 -0.490216L11.4577 0.685301ZM7.51342 0.685301L6.58165 -0.490237L6.57462 -0.484595L7.51342 0.685301ZM0.962025 5.94256L1.86794 7.1381C1.87902 7.1297 1.88998 7.12115 1.90082 7.11245L0.962025 5.94256ZM0 7.84736L-1.49993 7.83254C-1.49998 7.83748 -1.5 7.84242 -1.5 7.84736H0ZM8.15722 18.7714V15.7047H5.15722V18.7714H8.15722ZM8.15722 15.7046C8.15722 15.7152 8.15475 15.7287 8.14932 15.7414C8.14433 15.7532 8.13814 15.7614 8.13254 15.767C8.12097 15.7785 8.10398 15.7855 8.09098 15.7856L8.07105 12.7856C6.47273 12.7962 5.15718 14.0861 5.15722 15.7047L8.15722 15.7046ZM8.08101 15.7856H10.9671V12.7856H8.08101V15.7856ZM10.9671 15.7856C10.954 15.7856 10.937 15.7787 10.9254 15.7672C10.9197 15.7617 10.9135 15.7534 10.9085 15.7416C10.903 15.7288 10.9005 15.7153 10.9005 15.7047H13.9005C13.9005 14.0783 12.5729 12.7856 10.9671 12.7856V15.7856ZM10.9005 15.7047V18.7809H13.9005V15.7047H10.9005ZM10.9005 18.7805C10.9001 20.2715 12.0984 21.4655 13.5682 21.4996L13.6378 18.5004C13.7701 18.5035 13.9006 18.6149 13.9005 18.7813L10.9005 18.7805ZM13.603 21.5H15.5271V18.5H13.603V21.5ZM15.5271 21.5C18.2593 21.5 20.5 19.3033 20.5 16.5618H17.5C17.5 17.6181 16.631 18.5 15.5271 18.5V21.5ZM20.5 16.5618V7.83784H17.5V16.5618H20.5ZM20.4999 7.81727C20.4833 6.60658 19.909 5.47455 18.9484 4.74092L17.1276 7.12514C17.3619 7.30415 17.4963 7.57507 17.5001 7.8584L20.4999 7.81727ZM18.9732 4.7603L12.393 -0.487433L10.5225 1.85803L17.1027 7.10577L18.9732 4.7603ZM12.3895 -0.490216C10.6909 -1.83659 8.28029 -1.83659 6.58167 -0.490216L8.44517 1.86082C9.05212 1.37973 9.91902 1.37973 10.526 1.86082L12.3895 -0.490216ZM6.57462 -0.484595L0.0232263 4.77266L1.90082 7.11245L8.45222 1.8552L6.57462 -0.484595ZM0.0561156 4.74701C-0.910954 5.4798 -1.48792 6.61707 -1.49993 7.83254L1.49993 7.86218C1.50269 7.58226 1.63547 7.31425 1.86794 7.1381L0.0561156 4.74701ZM-1.5 7.84736V16.5618H1.5V7.84736H-1.5ZM-1.5 16.5618C-1.5 19.3033 0.740702 21.5 3.47291 21.5V18.5C2.36905 18.5 1.5 17.6181 1.5 16.5618H-1.5ZM3.47291 21.5H5.39696V18.5H3.47291V21.5ZM5.39696 21.5C6.89653 21.5 8.13797 20.2925 8.13797 18.7714H5.13797C5.13797 18.6073 5.26818 18.5 5.39696 18.5V21.5Z" fill="#1476BF" mask="url(#path-1-inside-1_1725_105751)"/>
</g>
</g>
</svg>
