<svg width="160" height="50" viewBox="0 0 160 50" fill="none" xmlns="http://www.w3.org/2000/svg">
<rect width="160" height="50" rx="4" fill="#1D3566"/>
<g clip-path="url(#clip0_2061_90152)">
<path d="M125.54 28.2193C124.374 26.2497 123.271 24.3833 122.168 22.5184C121.641 21.6274 121.093 20.7504 120.593 19.8441C119.784 18.3777 120.178 16.7636 121.517 15.9126C122.802 15.0956 124.351 15.4833 125.217 16.8759C125.883 17.9453 126.514 19.0393 127.143 20.1333C127.337 20.4719 127.469 20.6257 127.851 20.3118C128.585 19.7056 129.446 19.5702 130.336 19.8702C130.638 19.9718 130.779 19.8579 130.947 19.6425C131.738 18.63 132.729 18.27 133.941 18.67C134.214 18.7608 134.364 18.6546 134.549 18.4238C135.871 16.7728 138.064 16.8944 139.088 18.7639C140.557 21.4459 142.033 24.1371 143.289 26.9314C145.623 32.1261 141.932 38.5502 136.462 38.9826C134.978 39.0995 133.628 38.6118 132.311 37.9563C128.942 36.2806 125.564 34.628 122.193 32.9601C121.61 32.6723 121.107 32.2769 120.777 31.6737C119.97 30.2012 120.468 28.7978 121.984 28.287C122.97 27.9516 124.21 27.9131 125.54 28.2193ZM135.839 37.507C140.426 37.5501 143.978 32.1322 142.227 27.8146C141.024 24.8495 139.325 22.1429 137.875 19.304C137.593 18.75 137.07 18.5223 136.507 18.6039C135.917 18.69 135.505 19.0747 135.329 19.7164C135.057 20.6965 134.739 20.8042 133.925 20.2364C132.979 19.5748 132.036 19.9287 131.698 21.072C131.429 21.9798 131.065 22.106 130.32 21.5505C129.458 20.9073 128.618 21.1212 128.145 22.106C127.666 23.1015 127.216 23.1477 126.657 22.2245C125.798 20.7981 124.965 19.3532 124.114 17.9222C123.559 16.9882 122.769 16.7651 122.024 17.3221C121.334 17.8391 121.276 18.6654 121.895 19.7164C122.841 21.3258 123.807 22.9215 124.759 24.5264C125.749 26.1974 126.729 27.8746 127.722 29.5441C127.933 29.8996 128.048 30.2396 127.742 30.5889C127.407 30.9705 127.053 30.8659 126.689 30.6243C126.379 30.4197 126.04 30.2612 125.746 30.0365C124.769 29.2887 123.7 29.3179 122.598 29.5872C122.287 29.6626 121.874 29.6118 121.802 30.0888C121.732 30.5535 121.886 30.9597 122.222 31.2583C122.443 31.4537 122.701 31.6152 122.964 31.7445C126.288 33.3971 129.614 35.0496 132.948 36.6807C133.897 37.1469 134.871 37.5701 135.839 37.507Z" fill="white"/>
<path d="M122.675 11C125.714 10.9985 128.552 13.4296 129.131 16.5378C129.215 16.9871 129.232 17.4688 128.701 17.6042C128.175 17.738 127.913 17.4334 127.803 16.8748C127.092 13.3019 123.712 11.8124 121.2 12.6233C119.098 13.3019 117.59 15.1653 117.406 17.3887C117.214 19.7091 118.339 21.8141 120.335 22.8604C120.488 22.9404 120.647 23.0066 120.799 23.0866C121.183 23.2882 121.499 23.5928 121.277 24.0498C121.078 24.4576 120.713 24.6346 120.225 24.4238C117.922 23.4236 116.485 21.651 116.09 19.0859C115.425 14.7622 118.527 11.0031 122.675 11Z" fill="white"/>
</g>
<path d="M24.48 16.96C24.48 18.544 23.184 20.112 20.768 20.112C18.528 20.112 16.944 18.864 16.912 17.024H18.464C18.56 17.952 19.216 18.88 20.768 18.88C22.176 18.88 23.008 18.08 23.008 17.024C23.008 14.016 16.976 15.936 16.976 11.792C16.976 9.952 18.464 8.704 20.672 8.704C22.8 8.704 24.192 9.872 24.368 11.568H22.768C22.672 10.816 21.968 9.968 20.608 9.952C19.408 9.92 18.464 10.544 18.464 11.744C18.464 14.624 24.48 12.832 24.48 16.96ZM30.6706 12.32C29.2466 12.32 28.0626 13.264 27.9026 14.976H33.4386C33.4546 13.264 32.1746 12.32 30.6706 12.32ZM34.7666 17.296C34.3186 18.896 32.9106 20.144 30.7346 20.144C28.2386 20.144 26.3986 18.384 26.3986 15.6C26.3986 12.832 28.1746 11.088 30.7346 11.088C33.2786 11.088 34.9426 12.88 34.9426 15.28C34.9426 15.6 34.9266 15.856 34.8946 16.16H27.8866C27.9986 17.936 29.2466 18.912 30.7346 18.912C32.0466 18.912 32.8786 18.24 33.1986 17.296H34.7666ZM37.1845 20V8.16H38.6405V20H37.1845ZM45.17 12.32C43.746 12.32 42.562 13.264 42.402 14.976H47.938C47.954 13.264 46.674 12.32 45.17 12.32ZM49.266 17.296C48.818 18.896 47.41 20.144 45.234 20.144C42.738 20.144 40.898 18.384 40.898 15.6C40.898 12.832 42.674 11.088 45.234 11.088C47.778 11.088 49.442 12.88 49.442 15.28C49.442 15.6 49.426 15.856 49.394 16.16H42.386C42.498 17.936 43.746 18.912 45.234 18.912C46.546 18.912 47.378 18.24 47.698 17.296H49.266ZM51.1399 15.6C51.1399 12.848 52.9159 11.088 55.4119 11.088C57.5879 11.088 59.0119 12.208 59.4599 14.048H57.8919C57.5879 12.992 56.7079 12.32 55.4119 12.32C53.8119 12.32 52.6279 13.456 52.6279 15.6C52.6279 17.776 53.8119 18.912 55.4119 18.912C56.7079 18.912 57.5719 18.288 57.8919 17.184H59.4599C59.0119 18.928 57.5879 20.144 55.4119 20.144C52.9159 20.144 51.1399 18.384 51.1399 15.6ZM62.0426 17.6V12.432H60.9066V11.232H62.0426V9.024H63.4986V11.232H65.7866V12.432H63.4986V17.6C63.4986 18.464 63.8186 18.768 64.7146 18.768H65.7866V20H64.4746C62.9226 20 62.0426 19.36 62.0426 17.6ZM75.1764 15.792L71.5284 8.848H73.1444L75.8964 14.496L78.6484 8.848H80.2644L76.6324 15.792V20H75.1764V15.792ZM90.4401 15.6C90.4401 18.384 88.4401 20.144 85.9441 20.144C83.4641 20.144 81.5761 18.384 81.5761 15.6C81.5761 12.832 83.5281 11.088 86.0081 11.088C88.5041 11.088 90.4401 12.832 90.4401 15.6ZM83.0641 15.6C83.0641 17.824 84.4241 18.864 85.9441 18.864C87.4641 18.864 88.9521 17.824 88.9521 15.6C88.9521 13.392 87.4961 12.352 85.9921 12.352C84.4561 12.352 83.0641 13.392 83.0641 15.6ZM100.45 11.232V20H98.9945V18.704C98.4345 19.616 97.3625 20.128 96.1945 20.128C94.1785 20.128 92.5945 18.88 92.5945 16.368V11.232H94.0345V16.176C94.0345 17.952 95.0105 18.864 96.4825 18.864C97.9865 18.864 98.9945 17.936 98.9945 16.048V11.232H100.45ZM104.685 15.232V20H103.229V11.232H104.685V12.656C105.181 11.68 106.125 11.072 107.517 11.072V12.576H107.133C105.741 12.576 104.685 13.2 104.685 15.232Z" fill="white"/>
<path d="M26.296 36.238C26.296 38.362 24.64 40.126 21.688 40.126C18.97 40.126 16.846 38.776 16.756 36.22H20.032C20.122 37.192 20.734 37.66 21.598 37.66C22.498 37.66 23.074 37.21 23.074 36.472C23.074 34.132 16.756 35.392 16.792 30.91C16.792 28.516 18.754 27.184 21.4 27.184C24.154 27.184 26.008 28.552 26.134 30.964H22.804C22.75 30.154 22.174 29.668 21.346 29.65C20.608 29.632 20.05 30.01 20.05 30.802C20.05 32.998 26.296 32.008 26.296 36.238ZM37.0102 27.364V29.83H32.3482V32.386H36.4702V34.762H32.3482V37.534H37.0102V40H29.2702V27.364H37.0102ZM46.7665 31.468C46.7665 30.532 46.2265 29.92 45.0745 29.92H43.1665V33.052H45.0745C46.2265 33.052 46.7665 32.458 46.7665 31.468ZM40.0885 27.364H45.2545C48.3505 27.364 49.8985 29.146 49.8985 31.342C49.8985 32.926 49.0345 34.42 47.0905 34.996L50.0065 40H46.5325L43.9045 35.23H43.1665V40H40.0885V27.364ZM58.3647 36.904L61.5147 27.364H64.7727L60.2907 40H56.4387L51.9567 27.364H55.2327L58.3647 36.904ZM67.1391 40V27.364H70.2171V40H67.1391ZM73.0057 33.664C73.0057 29.884 75.6337 27.22 79.3597 27.22C82.3657 27.22 84.6337 28.912 85.3537 31.648H81.9697C81.4477 30.568 80.4937 30.028 79.3237 30.028C77.4337 30.028 76.1377 31.432 76.1377 33.664C76.1377 35.896 77.4337 37.3 79.3237 37.3C80.4937 37.3 81.4477 36.76 81.9697 35.68H85.3537C84.6337 38.416 82.3657 40.09 79.3597 40.09C75.6337 40.09 73.0057 37.444 73.0057 33.664ZM96.0587 27.364V29.83H91.3967V32.386H95.5187V34.762H91.3967V37.534H96.0587V40H88.3187V27.364H96.0587ZM108.317 36.238C108.317 38.362 106.661 40.126 103.709 40.126C100.991 40.126 98.8669 38.776 98.7769 36.22H102.053C102.143 37.192 102.755 37.66 103.619 37.66C104.519 37.66 105.095 37.21 105.095 36.472C105.095 34.132 98.7769 35.392 98.8129 30.91C98.8129 28.516 100.775 27.184 103.421 27.184C106.175 27.184 108.029 28.552 108.155 30.964H104.825C104.771 30.154 104.195 29.668 103.367 29.65C102.629 29.632 102.071 30.01 102.071 30.802C102.071 32.998 108.317 32.008 108.317 36.238Z" fill="white"/>
<defs>
<clipPath id="clip0_2061_90152">
<rect width="28" height="28" fill="white" transform="translate(116 11)"/>
</clipPath>
</defs>
</svg>
