<svg width="19" height="18" viewBox="0 0 19 18" fill="none" xmlns="http://www.w3.org/2000/svg">
<g id="Heart">
<path id="Stroke 1" d="M10.2854 16.6455C9.96367 16.8524 9.69498 17.0163 9.49867 17.133C9.30414 17.018 9.03858 16.8569 8.72074 16.6534C8.01724 16.203 7.0621 15.548 6.056 14.7307C4.01782 13.075 1.88008 10.8402 1.08604 8.36929C0.100159 5.29089 1.28886 1.97018 4.29984 1.00019L4.3002 1.00008C5.91677 0.478404 7.70488 0.786523 9.04899 1.79767C9.31896 2.00075 9.69137 1.99829 9.95862 1.79165C11.2145 0.820651 13.0731 0.481593 14.6902 1.00029C17.7024 1.97088 18.8971 5.29289 17.9125 8.36974L17.9114 8.37331C17.1453 10.8092 15.0112 13.0424 12.9638 14.7078C11.9541 15.5291 10.9935 16.1901 10.2854 16.6455Z" stroke="#787878" stroke-width="1.5" stroke-linecap="round" stroke-linejoin="round"/>
<g id="Stroke 3">
<mask id="path-2-inside-1_1725_105755" fill="white">
<path fill-rule="evenodd" clip-rule="evenodd" d="M13.5 3.69922C14.57 4.04522 15.326 5.00022 15.417 6.12122L13.5 3.69922Z"/>
</mask>
<path d="M13.9615 2.27198C13.1733 2.01709 12.3277 2.44946 12.0728 3.2377C11.8179 4.02594 12.2502 4.87157 13.0385 5.12645L13.9615 2.27198ZM13.9219 6.24259C13.9889 7.0683 14.7127 7.68333 15.5384 7.6163C16.3641 7.54927 16.9791 6.82556 16.9121 5.99985L13.9219 6.24259ZM13.0385 5.12645C13.5318 5.28599 13.88 5.7258 13.9219 6.24259L16.9121 5.99985C16.772 4.27464 15.6082 2.80445 13.9615 2.27198L13.0385 5.12645Z" fill="#787878" mask="url(#path-2-inside-1_1725_105755)"/>
</g>
</g>
</svg>
