<svg width="28" height="28" viewBox="0 0 28 28" fill="none" xmlns="http://www.w3.org/2000/svg">
<path d="M24 15.3189L21.113 12.3716C21.0459 12.3025 20.966 12.2477 20.8781 12.2103C20.7901 12.1729 20.6958 12.1536 20.6005 12.1536C20.5052 12.1536 20.4109 12.1729 20.3229 12.2103C20.235 12.2477 20.1552 12.3025 20.0881 12.3716L17.201 15.3189L18.2259 16.3653L19.8787 14.6705V18.7895C19.8787 18.9849 19.8027 19.1723 19.6673 19.3105C19.532 19.4487 19.3484 19.5263 19.157 19.5263H6.16528C5.97386 19.5263 5.79028 19.4487 5.65492 19.3105C5.51956 19.1723 5.44352 18.9849 5.44352 18.7895V9.29895L11.7012 12.4895C11.9987 12.639 12.3259 12.7168 12.6575 12.7168C12.9891 12.7168 13.3163 12.639 13.6139 12.4895L19.8787 9.39474V11.4211H21.3223V9.21053C21.3223 8.62426 21.0941 8.062 20.6881 7.64745C20.282 7.23289 19.7313 7 19.157 7H6.16528C5.59101 7 5.04027 7.23289 4.6342 7.64745C4.22813 8.062 4 8.62426 4 9.21053V18.7895C4 19.3757 4.22813 19.938 4.6342 20.3526C5.04027 20.7671 5.59101 21 6.16528 21H19.157C19.7313 21 20.282 20.7671 20.6881 20.3526C21.0941 19.938 21.3223 19.3757 21.3223 18.7895V14.6705L22.9751 16.3653L24 15.3189ZM12.9859 11.1779C12.8871 11.2273 12.7784 11.2531 12.6684 11.2531C12.5583 11.2531 12.4496 11.2273 12.3508 11.1779L7.06027 8.47368H18.4352L12.9859 11.1779Z" fill="#1476BF"/>
</svg>
