<svg width="28" height="28" viewBox="0 0 28 28" fill="none" xmlns="http://www.w3.org/2000/svg">
<path d="M20.6871 12.8058H20.2974C19.9211 8.95567 16.7955 5.9375 13.0002 5.9375C9.20447 5.9375 6.07849 8.95566 5.70256 12.8058H5.31248C4.00019 12.8058 2.9375 13.9182 2.9375 15.2795V18.2356C2.9375 19.5974 4.00016 20.7102 5.31248 20.7102H6.4125C6.82992 20.7102 7.16337 20.3582 7.16337 19.93V13.5861C7.16337 10.2265 9.78439 7.49799 12.9998 7.49799C16.2152 7.49799 18.8362 10.227 18.8362 13.5861V19.93C18.8362 20.4362 18.4413 20.8441 17.962 20.8441H15.8237C15.5778 20.4511 15.1542 20.1861 14.6684 20.1861C13.9041 20.1861 13.2865 20.8339 13.2865 21.6243C13.2865 22.4148 13.9041 23.0625 14.6684 23.0625C15.1542 23.0625 15.5782 22.7976 15.8237 22.4046H17.962C19.011 22.4046 19.8905 21.6892 20.2049 20.7102H20.6866C21.9989 20.7102 23.0625 19.5974 23.0625 18.2356V15.2795C23.063 13.9182 21.9993 12.8058 20.6871 12.8058ZM5.66162 19.1497H5.31248C4.83323 19.1497 4.43925 18.742 4.43925 18.2356V15.2795C4.43925 14.7737 4.83317 14.3663 5.31248 14.3663H5.66162V19.1497ZM21.5612 18.2356C21.5612 18.7419 21.1664 19.1497 20.6871 19.1497H20.3384V14.3663H20.6871C21.1665 14.3663 21.5612 14.7737 21.5612 15.2795V18.2356Z" fill="#1476BF" stroke="#1476BF" stroke-width="0.125"/>
</svg>
