<svg width="17" height="21" viewBox="0 0 17 21" fill="none" xmlns="http://www.w3.org/2000/svg">
<g id="Group 33600">
<g id="Group">
<path id="Vector" d="M13.0254 9.7832C12.7345 10.128 12.4077 10.4463 12.0323 10.7336C14.175 11.8904 15.6215 14.0652 15.6215 16.552C15.6215 17.8958 12.4934 18.9484 8.49995 18.9484C4.50656 18.9484 1.37836 17.8958 1.37836 16.552C1.37836 14.0652 2.82493 11.8904 4.96763 10.7336C4.59229 10.4463 4.26546 10.128 3.9745 9.7832C1.58835 11.2014 0 13.7053 0 16.552C0 17.4144 0.501703 18.6162 2.89195 19.4445C4.38292 19.9612 6.37455 20.2457 8.5 20.2457C10.6254 20.2457 12.6171 19.9612 14.108 19.4445C16.4982 18.6162 17 17.4144 17 16.552C16.9999 13.7053 15.4116 11.2014 13.0254 9.7832Z" fill="#787878"/>
<path id="Vector_2" d="M8.49943 10.6378C11.1782 10.6378 13.241 8.20074 13.241 5.31893C13.241 2.43579 11.1772 0 8.49943 0C5.82062 0 3.75781 2.43708 3.75781 5.31889C3.75781 8.20203 5.8217 10.6378 8.49943 10.6378ZM8.49943 1.29728C10.3539 1.29728 11.8627 3.10136 11.8627 5.31889C11.8627 7.53642 10.3539 9.34049 8.49943 9.34049C6.64496 9.34049 5.13617 7.53642 5.13617 5.31889C5.13617 3.10136 6.64496 1.29728 8.49943 1.29728Z" fill="#787878"/>
</g>
</g>
</svg>
